<svg xmlns="http://www.w3.org/2000/svg" width="64" height="64" viewBox="0 0 64 64">
  <g id="Group_53487" data-name="Group 53487" transform="translate(-797 -4439)">
    <circle id="Ellipse_428" data-name="Ellipse 428" cx="32" cy="32" r="32" transform="translate(797 4439)" fill="#3d3e42"/>
    <g id="Group_50804" data-name="Group 50804" transform="translate(663.314 4307.32)">
      <path id="Path_24460" data-name="Path 24460" d="M236.986,256.359a.7.7,0,0,0,1.019,0l1.091-1.091,1.091,1.091a.72.72,0,1,0,1.019-1.019l-1.091-1.091,1.091-1.091a.72.72,0,0,0-1.019-1.019L239.1,253.23l-1.091-1.091a.72.72,0,1,0-1.019,1.019l1.091,1.091-1.091,1.091A.7.7,0,0,0,236.986,256.359Z" transform="translate(-81.315 -95.309)" fill="#7d7d7d"/>
      <path id="Path_24461" data-name="Path 24461" d="M462.772,402.81l-1.091,1.019-1.091-1.091a.72.72,0,1,0-1.019,1.019l1.091,1.091-1.091,1.091a.72.72,0,0,0,1.019,1.019l1.091-1.091,1.091,1.091a.72.72,0,0,0,1.019-1.019l-1.091-1.091,1.091-1.091a.7.7,0,1,0-1.019-.946Z" transform="translate(-286.799 -234.338)" fill="#7d7d7d"/>
      <path id="Path_24462" data-name="Path 24462" d="M234.652,404.923a2.62,2.62,0,1,0-2.62-2.62A2.609,2.609,0,0,0,234.652,404.923Zm0-3.857a1.164,1.164,0,1,1-1.164,1.164A1.2,1.2,0,0,1,234.652,401.067Z" transform="translate(-76.943 -231.721)" fill="#7d7d7d"/>
      <path id="Path_24463" data-name="Path 24463" d="M256.66,321.8v3.129a.728.728,0,0,0,1.456,0V321.8a.688.688,0,0,0-.728-.728A.729.729,0,0,0,256.66,321.8Z" transform="translate(-99.679 -159.144)" fill="#7d7d7d"/>
      <path id="Path_24464" data-name="Path 24464" d="M318.005,425.76h8.077a.728.728,0,1,0,0-1.456h-8.077a.687.687,0,0,0-.728.728A.729.729,0,0,0,318.005,425.76Z" transform="translate(-155.639 -254.45)" fill="#7d7d7d"/>
      <path id="Path_24465" data-name="Path 24465" d="M318.006,274.211h5.967a6.8,6.8,0,0,1,6.767,6.767.728.728,0,0,0,1.456,0,8.261,8.261,0,0,0-8.223-8.223h-5.967a.688.688,0,0,0-.728.728.729.729,0,0,0,.727.727Z" transform="translate(-155.641 -114.544)" fill="#7d7d7d"/>
      <path id="Path_24466" data-name="Path 24466" d="M181.431,148.68H150.869a2.144,2.144,0,0,0-2.183,2.183v1.6a2.144,2.144,0,0,0,2.183,2.183h.582v19.865a2.128,2.128,0,0,0,2.11,2.183h11.861v2.62a2.146,2.146,0,0,0-1.455,2.11,2.184,2.184,0,1,0,4.366,0,2.317,2.317,0,0,0-1.455-2.11v-2.62h11.861a2.128,2.128,0,0,0,2.11-2.183V154.647h.582a2.144,2.144,0,0,0,2.183-2.183v-1.6a2.144,2.144,0,0,0-2.183-2.183Zm-14.553,32.744a.731.731,0,1,1-.728-.8A.8.8,0,0,1,166.878,181.424Zm12.516-6.913a.718.718,0,0,1-.655.728H153.561a.672.672,0,0,1-.655-.728V154.647h26.487Zm2.765-22.048a.688.688,0,0,1-.728.728H150.8a.688.688,0,0,1-.728-.728v-1.6a.688.688,0,0,1,.728-.728h30.634a.688.688,0,0,1,.728.728Z" fill="#7d7d7d"/>
    </g>
  </g>
</svg>
