<svg xmlns="http://www.w3.org/2000/svg" width="63.193" height="48.131" viewBox="0 0 63.193 48.131">
  <path id="Path_35413" data-name="Path 35413" d="M12831.5,4306.93c-3.055,0-6.758-1.21-10.71-3.5a54.53,54.53,0,0,1-10.92-8.573c-4.832-4.829-8.573-10.106-10.535-14.858-1.541-3.74-2.7-8.983.549-12.724a2.806,2.806,0,0,1,1.155-.794c.726-.289,2.085-.863,3.828-1.617l.035-.013c.189-.084.379-.167.565-.247l.21-.092.409-.18.217-.095c.313-.138.606-.267.861-.38a2.423,2.423,0,0,1,.976-.2,2.512,2.512,0,0,1,1.465.481l.636.468v-1.94a3.868,3.868,0,0,1,3.864-3.864h43.031a3.87,3.87,0,0,1,3.863,3.867v27.84a3.868,3.868,0,0,1-3.863,3.864h-17.156l.535.652a2.445,2.445,0,0,1,.355,2.534c-.238.538-.567,1.292-.979,2.24-.842,1.935-1.365,3.171-1.646,3.893a2.875,2.875,0,0,1-.8,1.156A8.817,8.817,0,0,1,12831.5,4306.93Zm-23.176-41.333-.323.136-.866.375-.239.1-.354.153-.29.125-.021.009c-.142.061-.31.134-.483.211-1.876.812-3.211,1.375-3.967,1.672a.9.9,0,0,0-.355.236c-2.145,2.476-2.095,6.4.146,11.362a38.909,38.909,0,0,0,4.074,6.836,56.581,56.581,0,0,0,5.668,6.595,52.621,52.621,0,0,0,10.28,8.1c3.737,2.2,7.157,3.357,9.891,3.357a6.833,6.833,0,0,0,4.626-1.569.937.937,0,0,0,.235-.358c.294-.751.856-2.085,1.672-3.964.233-.543.466-1.071.67-1.537l.136-.309,0-.01.242-.555-.13-.281-8.815-5.232-.193-.113-6.178,3.312a2.432,2.432,0,0,1-2.89-.429l-9.961-9.961a2.433,2.433,0,0,1-.43-2.889l3.206-5.969.106-.2-5.284-8.909-.178-.3Zm5.781-4.751a1.821,1.821,0,0,0-1.82,1.817v5.6l3.141,5.3a2.469,2.469,0,0,1,.055,2.408l-3.348,6.23,10.172,10.181.209.21,6.24-3.341a2.47,2.47,0,0,1,2.411.048l5.006,2.973.1.058h20.869a1.822,1.822,0,0,0,1.82-1.82v-27.844a1.821,1.821,0,0,0-1.82-1.817Zm40.277,28.286a1.024,1.024,0,0,1-.619-.21l-13.412-10.3-.259-.2-3.806,3.3a1.006,1.006,0,0,1-.665.249,1.03,1.03,0,0,1-.674-.252l-3.716-3.221-9.519,7.585a1.052,1.052,0,0,1-.637.223,1.02,1.02,0,0,1-1.016-1.138,1,1,0,0,1,.377-.682l8.848-7.05.374-.3-13.473-11.688a1.017,1.017,0,0,1-.106-1.437,1.022,1.022,0,0,1,1.446-.1l17.83,15.464.265.226,3.761-3.263,0,0a.073.073,0,0,1,.018-.015l14.313-12.408a1.021,1.021,0,0,1,1.337,1.542l-13.016,11.288-.367.32L12855,4287.3a1.023,1.023,0,0,1-.626,1.833Z" transform="translate(-12797.803 -4258.799)" fill="#ff0a2b"/>
</svg>
