<svg xmlns="http://www.w3.org/2000/svg" width="40" height="40" viewBox="0 0 40 40">
  <g id="Group_63153" data-name="Group 63153" transform="translate(-145 -960)">
    <g id="Group_63152" data-name="Group 63152" transform="translate(-947 -929)">
      <rect id="Rectangle_16075" data-name="Rectangle 16075" width="40" height="40" transform="translate(1092 1889)" fill="rgba(17,17,17,0)"/>
    </g>
    <path id="Path_35391" data-name="Path 35391" d="M12818.993,4286.3h-12.309a.77.77,0,0,1-.771-.768.734.734,0,0,1,.048-.257l.072-.2h-.007l3.469-5.946a.313.313,0,0,0,.078-.114c.136-.243.545-.98,2.341-1.019h14.154a.769.769,0,0,0,.768-.768v-16.615a.767.767,0,0,0-.768-.765h-26.46a.768.768,0,0,0-.769.765v16.615a.769.769,0,0,0,.769.768h7.238l-.925,1.542h-6.929a1.7,1.7,0,0,1-1.7-1.7v-17.845a1.7,1.7,0,0,1,1.7-1.693h27.691a1.693,1.693,0,0,1,1.694,1.693v17.845a1.7,1.7,0,0,1-1.694,1.7h-15.474l-2.9,5.224h9.061l-1.708-3.076h2.015l1.976,3.388h-.006l.07.2a.705.705,0,0,1,.05.257A.771.771,0,0,1,12818.993,4286.3Z" transform="translate(-12648.297 -3292.301)" fill="#fff"/>
  </g>
</svg>
