<svg xmlns="http://www.w3.org/2000/svg" width="113.719" height="60" viewBox="0 0 113.719 60">
  <g id="Layer_x0020_1" transform="translate(-14349 -13958)">
    <g id="_1916586552848" transform="translate(14349 13958)">
      <g id="Group_63183" data-name="Group 63183" transform="translate(0.019 0)">
        <path id="Path_35399" data-name="Path 35399" d="M14351,13958v45.122h14.936V13991.4h6.243c11.718,0,18.479-6.311,18.479-17.25,0-10.3-6.762-16.154-18.479-16.154Zm14.936,11.324h5.475c3.218,0,5.081,1.93,5.081,5.282,0,3.477-1.863,5.475-5.081,5.475h-5.475Z" transform="translate(-14351 -13958)" fill="#ff0a2b"/>
        <path id="Path_35400" data-name="Path 35400" d="M19030.936,14003.122V13958H19016v45.122Z" transform="translate(-18971.195 -13958)" fill="#ff0a2b"/>
        <path id="Path_35401" data-name="Path 35401" d="M20958.344,13958h-17.383l14.877,22.205-15.838,22.917h17.441l7.473-11.649,7.588,11.649h17.9C20972.742,13977,20959.324,13959.594,20958.344,13958Z" transform="translate(-20876.715 -13958)" fill="#ff0a2b"/>
        <path id="Path_35402" data-name="Path 35402" d="M24376,13958h17.4v17.4H24376Z" transform="translate(-24279.715 -13958)" fill="#ff0a2b" fill-rule="evenodd"/>
      </g>
      <path id="Path_35403" data-name="Path 35403" d="M14353.36,19207a4.233,4.233,0,0,1,2.468.633,2.008,2.008,0,0,1,.913,1.73,2.114,2.114,0,0,1-.441,1.324,2.191,2.191,0,0,1-1.2.76,2.318,2.318,0,0,1,1.979,2.393,2.231,2.231,0,0,1-.961,1.92,4.324,4.324,0,0,1-2.613.711h-4.5V19207Zm-.115,3.813a1.508,1.508,0,0,0,.96-.277.935.935,0,0,0,.346-.777.909.909,0,0,0-.346-.76,1.5,1.5,0,0,0-.96-.25h-2.1v2.064Zm0,3.91a2.027,2.027,0,0,0,1.19-.309.965.965,0,0,0,.434-.844.926.926,0,0,0-.434-.807,1.96,1.96,0,0,0-1.19-.289h-2.1v2.248Zm11.2,1.748-1.5-2.709h-2.18v2.709h-2.133V19207h4.111a4.334,4.334,0,0,1,2.862.855,3,3,0,0,1,1.019,2.43,3.7,3.7,0,0,1-.452,1.873,2.906,2.906,0,0,1-1.325,1.182l2.018,3.131Zm-3.679-4.494h1.979a2.045,2.045,0,0,0,1.373-.414,1.5,1.5,0,0,0,.48-1.211,1.46,1.46,0,0,0-.48-1.18,2.086,2.086,0,0,0-1.373-.4h-1.979Zm14.646,4.494-.738-1.844h-4.391l-.739,1.844h-2.2l4.11-9.471h2.2l4.044,9.471Zm-4.418-3.564h2.987l-1.489-3.678Zm14.234-5.906h2.027v9.471h-1.941l-4.591-6.09v6.09h-2.036V19207h1.95l4.591,6.109Zm8.125,0a5.385,5.385,0,0,1,2.584.605,4.309,4.309,0,0,1,1.768,1.672,4.756,4.756,0,0,1,.634,2.457,4.7,4.7,0,0,1-.644,2.449,4.461,4.461,0,0,1-1.8,1.682,5.546,5.546,0,0,1-2.622.605h-3.937V19207Zm.059,7.664a2.783,2.783,0,0,0,1.412-.363,2.56,2.56,0,0,0,.979-1.039,3.124,3.124,0,0,0,.355-1.516,3.089,3.089,0,0,0-.375-1.527,2.681,2.681,0,0,0-1.008-1.047,2.843,2.843,0,0,0-1.46-.375h-1.835v5.867Zm13.514-7.664a4.16,4.16,0,0,1,2.795.855,3.041,3.041,0,0,1,.988,2.43,3.3,3.3,0,0,1-1,2.564,3.97,3.97,0,0,1-2.785.912h-1.883v2.709h-2.133V19207Zm-.115,4.977a2.085,2.085,0,0,0,1.393-.414,1.5,1.5,0,0,0,.48-1.211,1.463,1.463,0,0,0-.48-1.18,2.127,2.127,0,0,0-1.393-.4h-1.768v3.209Zm4.226-4.977h2.3l2.583,7.137,2.594-7.137h2.209l-3.765,9.471h-2.2Zm9.787,0h7.914v1.816h-2.9v7.654h-2.132v-7.654h-2.882Zm8.846,7.434a1.014,1.014,0,0,1,.749.3,1.08,1.08,0,0,1,.289.777,1.121,1.121,0,0,1-.289.779,1.066,1.066,0,0,1-1.488-.012,1.151,1.151,0,0,1,0-1.545A1.008,1.008,0,0,1,14429.669,19214.434Zm5.8-7.434h2.132v7.6h4.063v1.873h-6.194Zm6.531,0h7.914v1.816h-2.9v7.654h-2.133v-7.654H14442Zm13.081,0a5.369,5.369,0,0,1,2.573.605,4.3,4.3,0,0,1,1.768,1.672,4.747,4.747,0,0,1,.635,2.457,4.7,4.7,0,0,1-.645,2.449,4.464,4.464,0,0,1-1.795,1.682,5.55,5.55,0,0,1-2.623.605h-3.937V19207Zm.048,7.664a2.778,2.778,0,0,0,1.412-.363,2.563,2.563,0,0,0,.979-1.039,3.356,3.356,0,0,0-.019-3.043,2.686,2.686,0,0,0-1.01-1.047,2.842,2.842,0,0,0-1.459-.375h-1.834v5.867Zm6.551-.23a1.017,1.017,0,0,1,.749.3,1.079,1.079,0,0,1,.288.777,1.12,1.12,0,0,1-.288.779.987.987,0,0,1-.749.3,1.018,1.018,0,0,1-.75-.309,1.153,1.153,0,0,1,0-1.545A1.049,1.049,0,0,1,14461.682,19214.434Z" transform="translate(-14349 -19156.586)" fill="#ff0a2b"/>
    </g>
  </g>
</svg>
