<svg xmlns="http://www.w3.org/2000/svg" width="342.5" height="377.325" viewBox="0 0 342.5 377.325">
  <g id="Group_63193" data-name="Group 63193" transform="translate(-922.431 -962.25)">
    <rect id="Rectangle_16096" data-name="Rectangle 16096" width="246.251" height="318.598" transform="translate(937.786 1004.685)" fill="none" stroke="#737373" stroke-width="1.5"/>
    <rect id="Rectangle_16097" data-name="Rectangle 16097" width="158.897" height="98.339" transform="translate(1040.681 1240.485)" fill="#111" stroke="#737373" stroke-width="1.5"/>
    <rect id="Rectangle_16098" data-name="Rectangle 16098" width="17.149" height="98.339" transform="translate(1182.429 1240.485)" fill="#111" stroke="#737373" stroke-width="1.5"/>
    <rect id="Rectangle_16099" data-name="Rectangle 16099" width="62.166" height="110.933" transform="translate(1167.155 1080.516)" fill="#111" stroke="#737373" stroke-width="1.5"/>
    <rect id="Rectangle_16100" data-name="Rectangle 16100" width="41" height="42" transform="translate(923.181 1255)" fill="#111" stroke="#737373" stroke-width="1.5"/>
    <rect id="Rectangle_16101" data-name="Rectangle 16101" width="27" height="7" transform="translate(930.181 1297)" fill="#111" stroke="#737373" stroke-width="1.5"/>
    <rect id="Rectangle_16102" data-name="Rectangle 16102" width="27" height="6" transform="translate(930.181 1249)" fill="#111" stroke="#737373" stroke-width="1.5"/>
    <path id="Path_35439" data-name="Path 35439" d="M465.939,1047.575V1039H437v8.575Z" transform="translate(603.413 164.239)" fill="#515050"/>
    <path id="Path_35440" data-name="Path 35440" d="M448.016,1018.5V1011H403v7.5Z" transform="translate(628.302 184.736)" fill="#515050"/>
    <path id="Path_35441" data-name="Path 35441" d="M355.373,739.426v12.359h47.461L399.2,732.026a10.822,10.822,0,0,1,4.233-10.939c11.408-7.935,18.765-9.008,19.041-23.781a39.3,39.3,0,0,0-16.2-31.714c-15.242-11.391-37.924-11.641-53.274-.4-9.379,6.871-14.836,17.429-15.863,32.11-1.042,14.883,3.577,22.6,14.587,33.528A12.137,12.137,0,0,1,355.373,739.426Z" transform="translate(676.617 443.951)" fill="#515050"/>
    <path id="Path_35442" data-name="Path 35442" d="M354.5,663.5h73.554" transform="translate(663.807 439.122)" fill="none" stroke="#515050" stroke-width="2"/>
    <rect id="Rectangle_16103" data-name="Rectangle 16103" width="7.771" height="8.039" transform="translate(1009.598 1142.146)" fill="#515050"/>
    <rect id="Rectangle_16104" data-name="Rectangle 16104" width="7.771" height="8.039" transform="translate(1010.937 1099.005)" fill="#515050"/>
    <rect id="Rectangle_16105" data-name="Rectangle 16105" width="7.771" height="8.039" transform="translate(1052.202 1099.005)" fill="#515050"/>
    <rect id="Rectangle_16106" data-name="Rectangle 16106" width="7.771" height="8.039" transform="translate(1091.592 1099.005)" fill="#515050"/>
    <rect id="Rectangle_16107" data-name="Rectangle 16107" width="7" height="9" transform="translate(1096.181 1098)" fill="#111" stroke="#b2b2b2" stroke-width="1.5"/>
    <rect id="Rectangle_16108" data-name="Rectangle 16108" width="10" height="9" transform="translate(1022.181 1098)" fill="#111" stroke="#b2b2b2" stroke-width="1.5"/>
    <path id="Path_35443" data-name="Path 35443" d="M401.715,737.772v9.807h40.461v-9.361a12.524,12.524,0,0,1,4.148-9.14c9.146-8.455,12.36-15.232,12.6-27.989a33.281,33.281,0,0,0-10.563-24.33c-13.826-13.1-38.2-13.566-51.908-.34-6.012,5.8-9.528,13.947-10.278,24.67-.872,12.46,2.9,19.033,11.908,28.083A12.236,12.236,0,0,1,401.715,737.772Z" transform="translate(640.709 436.77)" fill="#111" stroke="#b2b2b2" stroke-width="1.5"/>
    <path id="Path_35444" data-name="Path 35444" d="M498.528,1021.163V1015H472v6.163Z" transform="translate(577.79 181.808)" fill="#111" stroke="#b2b2b2" stroke-width="1.5"/>
    <path id="Path_35445" data-name="Path 35445" d="M484.873,998.163V992H442v6.163Z" transform="translate(599.752 198.645)" fill="#111" stroke="#b2b2b2" stroke-width="1.5"/>
    <path id="Path_35446" data-name="Path 35446" d="M484.873,975.163V969H442v6.163Z" transform="translate(599.752 215.482)" fill="#111" stroke="#b2b2b2" stroke-width="1.5"/>
    <circle id="Ellipse_13537" data-name="Ellipse 13537" cx="5.225" cy="5.225" r="5.225" transform="translate(944.217 1281.214)" fill="none" stroke="#737373" stroke-width="1.5"/>
    <circle id="Ellipse_13538" data-name="Ellipse 13538" cx="5.225" cy="5.225" r="5.225" transform="translate(949.576 1270.764)" fill="none" stroke="#737373" stroke-width="1.5"/>
    <circle id="Ellipse_13539" data-name="Ellipse 13539" cx="5.225" cy="5.225" r="5.225" transform="translate(927.335 1270.764)" fill="none" stroke="#737373" stroke-width="1.5"/>
    <circle id="Ellipse_13540" data-name="Ellipse 13540" cx="4.957" cy="4.957" r="4.957" transform="translate(938.59 1271.3)" fill="#ff0a2b"/>
    <circle id="Ellipse_13541" data-name="Ellipse 13541" cx="4.153" cy="4.153" r="4.153" transform="translate(1186.984 1285.502)" fill="#fb5457"/>
    <circle id="Ellipse_13542" data-name="Ellipse 13542" cx="4.019" cy="4.019" r="4.019" transform="translate(1194.219 1180.463)" fill="#ff0a2b"/>
    <circle id="Ellipse_13543" data-name="Ellipse 13543" cx="15.407" cy="15.407" r="15.407" transform="translate(1047.915 1122.585)" fill="#ff0a2b"/>
    <circle id="Ellipse_13544" data-name="Ellipse 13544" cx="5.225" cy="5.225" r="5.225" transform="translate(932.695 1281.214)" fill="none" stroke="#737373" stroke-width="1.5"/>
    <circle id="Ellipse_13545" data-name="Ellipse 13545" cx="5.225" cy="5.225" r="5.225" transform="translate(944.217 1260.314)" fill="none" stroke="#737373" stroke-width="1.5"/>
    <circle id="Ellipse_13546" data-name="Ellipse 13546" cx="5.225" cy="5.225" r="5.225" transform="translate(932.695 1260.314)" fill="none" stroke="#737373" stroke-width="1.5"/>
    <circle id="Ellipse_13547" data-name="Ellipse 13547" cx="147" cy="147" r="147" transform="translate(970.181 963)" fill="none" stroke="#ff0a2b" stroke-linecap="round" stroke-linejoin="round" stroke-width="1.5" stroke-dasharray="1 6"/>
    <rect id="Rectangle_16109" data-name="Rectangle 16109" width="11.79" height="12.326" transform="translate(1176.023 1097.933)" fill="#111" stroke="#737373" stroke-width="1.5"/>
    <rect id="Rectangle_16110" data-name="Rectangle 16110" width="28.671" height="6.699" transform="translate(1184.036 1080.516)" fill="#111" stroke="#737373" stroke-width="1.5"/>
    <rect id="Rectangle_16111" data-name="Rectangle 16111" width="11.79" height="12.326" transform="translate(1176.023 1115.032)" fill="#111" stroke="#737373" stroke-width="1.5"/>
    <rect id="Rectangle_16112" data-name="Rectangle 16112" width="11.79" height="12.326" transform="translate(1192.343 1097.933)" fill="#111" stroke="#737373" stroke-width="1.5"/>
    <rect id="Rectangle_16113" data-name="Rectangle 16113" width="11.79" height="12.326" transform="translate(1192.343 1115.032)" fill="#111" stroke="#737373" stroke-width="1.5"/>
    <rect id="Rectangle_16114" data-name="Rectangle 16114" width="11.79" height="12.326" transform="translate(1208.663 1097.933)" fill="#111" stroke="#737373" stroke-width="1.5"/>
    <rect id="Rectangle_16115" data-name="Rectangle 16115" width="31.887" height="155.414" transform="translate(927.335 1052.649)" fill="#121212" stroke="#737373" stroke-width="1.5"/>
    <line id="Line_481" data-name="Line 481" x2="11.79" transform="translate(947.701 1064.171)" fill="none" stroke="#737373" stroke-width="1.5"/>
    <line id="Line_482" data-name="Line 482" x2="11.79" transform="translate(947.701 1083.196)" fill="none" stroke="#737373" stroke-width="1.5"/>
    <line id="Line_483" data-name="Line 483" x2="17.417" transform="translate(942.073 1102.22)" fill="none" stroke="#737373" stroke-width="1.5"/>
    <line id="Line_484" data-name="Line 484" x2="11.79" transform="translate(947.701 1121.245)" fill="none" stroke="#737373" stroke-width="1.5"/>
    <line id="Line_485" data-name="Line 485" x2="11.79" transform="translate(947.701 1140.27)" fill="none" stroke="#737373" stroke-width="1.5"/>
    <line id="Line_486" data-name="Line 486" x2="16.881" transform="translate(942.609 1159.295)" fill="none" stroke="#737373" stroke-width="1.5"/>
    <line id="Line_487" data-name="Line 487" x2="11.79" transform="translate(947.701 1178.32)" fill="none" stroke="#737373" stroke-width="1.5"/>
    <line id="Line_488" data-name="Line 488" x2="11.79" transform="translate(947.701 1197.344)" fill="none" stroke="#737373" stroke-width="1.5"/>
    <path id="Path_35447" data-name="Path 35447" d="M353.842,269.81l87.022-.8v14.467H353.838l-14.051-6.7Z" transform="translate(674.577 727.908)" fill="#111" stroke="#737373" stroke-width="1.5"/>
    <rect id="Rectangle_16116" data-name="Rectangle 16116" width="10" height="8" transform="translate(1022.181 1138)" fill="#111" stroke="#b2b2b2" stroke-width="1.5"/>
    <rect id="Rectangle_16117" data-name="Rectangle 16117" width="7" height="8" transform="translate(1096.181 1138)" fill="#111" stroke="#b2b2b2" stroke-width="1.5"/>
    <path id="Path_35448" data-name="Path 35448" d="M640.479,1266,624,1317.313h59.084c-5.18-11.477-15.541-34.647-15.541-35.5s-6.878,11.166-10.316,17.283Z" transform="translate(466.52 -1.935)" fill="none" stroke="#b2b2b2" stroke-linecap="round" stroke-linejoin="round" stroke-width="1" stroke-dasharray="1 5"/>
    <rect id="Rectangle_16118" data-name="Rectangle 16118" width="7" height="9" transform="translate(1060.181 1098)" fill="#111" stroke="#b2b2b2" stroke-width="1.5"/>
  </g>
</svg>
