<svg xmlns="http://www.w3.org/2000/svg" width="74.846" height="66" viewBox="0 0 74.846 66">
  <g id="Group_63481" data-name="Group 63481" transform="translate(-4 -13)">
    <path id="Path_35516" data-name="Path 35516" d="M37.376,78a32,32,0,1,0,0-64,32,32,0,1,0,0,64Z" fill="none" stroke="#fff" stroke-linecap="round" stroke-linejoin="round" stroke-miterlimit="10" stroke-width="2"/>
    <path id="Path_35517" data-name="Path 35517" d="M47.325,77.167A21.335,21.335,0,1,0,25.741,55.833,21.46,21.46,0,0,0,47.325,77.167Z" transform="translate(-9.949 -9.833)" fill="none" stroke="#fff" stroke-linecap="round" stroke-linejoin="round" stroke-miterlimit="10" stroke-width="2"/>
    <path id="Path_35518" data-name="Path 35518" d="M57.273,76.334A10.667,10.667,0,1,0,46.481,65.667,10.73,10.73,0,0,0,57.273,76.334Z" transform="translate(-19.898 -19.667)" fill="none" stroke="#fff" stroke-linecap="round" stroke-linejoin="round" stroke-miterlimit="10" stroke-width="2"/>
    <path id="Path_35519" data-name="Path 35519" d="M67.748,75.5H94.163" transform="translate(-30.099 -29.5)" fill="none" stroke="#fff" stroke-linecap="round" stroke-linejoin="round" stroke-miterlimit="10" stroke-width="2"/>
    <path id="Path_35520" data-name="Path 35520" d="M132.564,75.916H121.772l-2.7-5.333,2.7-5.333h10.792l-2.7,5.333Z" transform="translate(-54.718 -24.583)" fill="none" stroke="#fff" stroke-linecap="round" stroke-linejoin="round" stroke-miterlimit="10" stroke-width="2"/>
  </g>
</svg>
