<svg xmlns="http://www.w3.org/2000/svg" width="85.027" height="64" viewBox="0 0 85.027 64">
  <path id="Path_35670" data-name="Path 35670" d="M13924.344,4385.2h0l-1.782-.007.017-4.213,1.784.007-.018,4.211Zm-36.235,0h-1.787c-.012-1.89-.013-3.542,0-5.052a9.156,9.156,0,0,1,.561-3.17.191.191,0,0,0-.056-.211,6.971,6.971,0,0,0-3.208-1.3c-.2-.042-.406-.088-.608-.137a4.661,4.661,0,0,1-3.946-4.466l1.8,0c.235,2.247,1.844,2.591,3.546,2.956l.125.027c.188.04.358.076.529.117a7.4,7.4,0,0,1,2.622,1.177.16.16,0,0,0,.092.028.171.171,0,0,0,.137-.066,8.372,8.372,0,0,1,4.132-3.012,12.662,12.662,0,0,1,1.583-.387l.018,0,.015,0c1.767-.352,3.594-.715,4.248-3.058a.213.213,0,0,0-.021-.161.206.206,0,0,0-.126-.1,8.712,8.712,0,0,1-2.35-1.007l-.007,0a24.662,24.662,0,0,1-3.918-2.493,19.608,19.608,0,0,1-6.113-8.389,26.54,26.54,0,0,1-1.044-3.3,17.844,17.844,0,0,1-.4-3.094,19.418,19.418,0,0,1,2.991-11.087,19.8,19.8,0,0,1,16.813-9.355,19.968,19.968,0,0,1,13.243,5.08.193.193,0,0,0,.129.053.184.184,0,0,0,.1-.032.159.159,0,0,0,.056.009.221.221,0,0,0,.162-.076c.659-.7,1.26-1.307,1.836-1.85a.273.273,0,0,0,.06-.309l-2.316-5.291a.25.25,0,0,1,.076-.323c.369-.326.721-.661,1.047-.994,1.541-1.587,3.105-3.165,4.651-4.69a.088.088,0,0,1,.061-.025h.01a.073.073,0,0,1,.053.042l2.714,6.07a.56.56,0,0,0,.277.281c1.9.845,3.637,1.625,5.323,2.384a.114.114,0,0,1,.021.011l0,0,.024.014.011.006a.407.407,0,0,0,.21.082.111.111,0,0,1,.057.014.625.625,0,0,0,.4.151.668.668,0,0,0,.216-.039.322.322,0,0,1,.144.066l-6.154,6.158-5.48-2.439a.165.165,0,0,0-.071-.015.214.214,0,0,0-.153.067l-1.949,1.952a.162.162,0,0,0-.01.218,19.857,19.857,0,0,1-8.787,32.17.168.168,0,0,0-.117.2c.572,2.342,2.354,2.713,4.239,3.105h.007l.079.017c.4.082.806.166,1.209.275a8.055,8.055,0,0,1,4.451,3.1.179.179,0,0,0,.136.064.149.149,0,0,0,.092-.03,9.673,9.673,0,0,1,3.756-1.435l.013,0c.18-.042.358-.083.544-.128a2.882,2.882,0,0,0,2.507-2.7l1.8,0a.025.025,0,0,1,.024.024,4.682,4.682,0,0,1-3.076,4.2,11.276,11.276,0,0,1-1.741.471,6.327,6.327,0,0,0-2.964,1.2.2.2,0,0,0-.052.214,8.059,8.059,0,0,1,.533,2.331c.052.878.058,2.8.018,5.887h-1.783v-5.02a6.57,6.57,0,0,0-2.205-5.059,8.622,8.622,0,0,0-4.3-1.8l-.043-.009-.039-.008c-.147-.033-.3-.066-.449-.1a5.438,5.438,0,0,1-4.521-4.161.173.173,0,0,0-.165-.123l-.021,0h-.015a20.464,20.464,0,0,1-3.88.376,20.682,20.682,0,0,1-3.873-.373.151.151,0,0,0-.03,0,.172.172,0,0,0-.158.126,5.531,5.531,0,0,1-2.75,3.557,12.047,12.047,0,0,1-3.045.9l-.161.035c-.235.049-.445.094-.651.142a6.192,6.192,0,0,0-3.515,2.268,6.732,6.732,0,0,0-1.405,4.013c-.026,1.877-.038,3.639-.034,5.238Zm15.553-53.731c-.211,0-.415,0-.6.011a18.011,18.011,0,0,0-16.824,13.776,18.536,18.536,0,0,0-.183,7.457,18.154,18.154,0,0,0,2.644,6.67,17.712,17.712,0,0,0,11.551,7.773,18.309,18.309,0,0,0,3.47.337,17.918,17.918,0,0,0,6.7-1.3,18.235,18.235,0,0,0,5.649-3.584,17.657,17.657,0,0,0,5.655-12.194,18.261,18.261,0,0,0-.966-6.881,18.653,18.653,0,0,0-3.535-6.032.125.125,0,0,0-.1-.049h-.01a.131.131,0,0,0-.095.039l-3.743,3.728a.185.185,0,0,0-.007.243,12.393,12.393,0,0,1,1.119,14.5,12.628,12.628,0,0,1-10.658,5.979,11.812,11.812,0,0,1-1.607-.108,12.6,12.6,0,0,1-8.666-5.344,12.424,12.424,0,0,1,10.288-19.443,12.44,12.44,0,0,1,8.028,2.914.175.175,0,0,0,.11.039.182.182,0,0,0,.118-.042l.024-.025a.168.168,0,0,0,.052.012h.007a.211.211,0,0,0,.134-.063c1.114-1.061,2.316-2.3,3.575-3.687l.07-.073-.081-.071a18.971,18.971,0,0,0-5.681-3.433A18.084,18.084,0,0,0,13903.661,4331.465Zm.085,7.363a10.7,10.7,0,0,0-2.641.333,10.478,10.478,0,0,0-4.655,2.545,10.681,10.681,0,0,0-1.222,14.177,10.378,10.378,0,0,0,3.848,3.191,10.607,10.607,0,0,0,4.563,1.025,11.032,11.032,0,0,0,6.714-2.269,10.156,10.156,0,0,0,3.83-6.375,11.1,11.1,0,0,0-2.037-8.56.319.319,0,0,0-.256-.161.342.342,0,0,0-.238.116l-3.371,3.367a.187.187,0,0,0-.027.228,5.409,5.409,0,0,1,.256,5.544,5.4,5.4,0,0,1-9.946-.966,5.2,5.2,0,0,1,.762-4.715,5.488,5.488,0,0,1,7.4-1.345.23.23,0,0,0,.13.041.2.2,0,0,0,.088-.02.544.544,0,0,0,.084-.056s.008,0,.015,0a.146.146,0,0,0,.036,0,.222.222,0,0,0,.153-.071l.326-.325c.914-.911,1.857-1.852,2.749-2.736a.224.224,0,0,0,.071-.175.123.123,0,0,0-.011-.05l.112-.14a.153.153,0,0,0,.031-.134.162.162,0,0,0-.066-.105A10.742,10.742,0,0,0,13903.746,4338.828Zm0,7.043a3.6,3.6,0,0,0-3.592,3.756,3.612,3.612,0,0,0,2.3,3.223,3.339,3.339,0,0,0,1.239.235,3.681,3.681,0,0,0,2.991-1.53,3.525,3.525,0,0,0,.267-3.718.138.138,0,0,0-.12-.084h-.021a.155.155,0,0,0-.108.047l-2.254,2.257-1.274-1.278,2.271-2.271a.149.149,0,0,0,.039-.137.158.158,0,0,0-.084-.105A3.785,3.785,0,0,0,13903.742,4345.871Zm21.66-16.671a.254.254,0,0,0-.177.075l-3.156,3.156a.146.146,0,0,0-.042.147.169.169,0,0,0,.095.113l3.479,1.542a.21.21,0,0,0,.081.017.2.2,0,0,0,.141-.063l3.174-3.17a.146.146,0,0,0,.039-.151.175.175,0,0,0-.1-.105l-3.451-1.541A.208.208,0,0,0,13925.4,4329.2Zm-3.131-5.028a.138.138,0,0,0-.1.047l-3.156,3.156a.205.205,0,0,0-.024.228l1.531,3.458a.194.194,0,0,0,.168.12.147.147,0,0,0,.035-.006h.007a.369.369,0,0,0,.162-.095l.042,0h.011a.261.261,0,0,0,.183-.081l2.948-2.981a.252.252,0,0,0,.057-.26,25.654,25.654,0,0,0-1.292-2.777l-.432-.737a.146.146,0,0,0-.113-.074Zm23.952,61.024h-1.784c-.011-1.132-.014-2.269-.011-3.381a9.932,9.932,0,0,0-.168-2.2,5.076,5.076,0,0,0-2.575-3.367,8.322,8.322,0,0,0-2.365-.772l-.031-.007a5.859,5.859,0,0,1-3.148-1.384,4.587,4.587,0,0,1-1.433-3.223h1.8c.194,2.253,1.868,2.6,3.486,2.945a11.8,11.8,0,0,1,1.493.383,7.093,7.093,0,0,1,4.613,5.333,12.381,12.381,0,0,1,.122,2.025c0,1.209,0,2.46,0,3.643Zm-5.7,0h0l-1.8,0,.008-4.213,1.8,0-.007,4.212Zm-26.191,0h-1.8v-5.083h1.8v5.083Zm-19.394,0h-1.8v-5.083h1.8v5.083Zm-10.021,0h-1.8v-4.213h1.8v4.212Zm-16.174,0h0l-1.825,0,.011-4.209h1.822l-.007,4.212Zm-5.7,0h-1.791c0-.478-.015-.974-.027-1.439l0-.09v-.013a20.559,20.559,0,0,1,.181-4.289,7.146,7.146,0,0,1,4.747-5.242,11.667,11.667,0,0,1,1.384-.349l.019,0,.075-.016c1.58-.326,3.072-.634,3.35-2.889l1.784-.007a4.637,4.637,0,0,1-3.171,4.29c-.276.084-.639.162-.99.236l-.108.024-.035.007a10.584,10.584,0,0,0-2.489.744,5.1,5.1,0,0,0-2.75,3.461,17.256,17.256,0,0,0-.2,4.122c0,.12,0,.239.008.355v.045c.008.368.015.716.012,1.051Zm68.512-14.805a8.89,8.89,0,1,1,8.89-8.889A8.9,8.9,0,0,1,13931.556,4370.39Zm0-15.971a7.083,7.083,0,1,0,7.081,7.082A7.092,7.092,0,0,0,13931.556,4354.419Zm-55.634,15.971a8.891,8.891,0,1,1,8.89-8.889A8.9,8.9,0,0,1,13875.922,4370.39Zm0-15.971a7.083,7.083,0,1,0,7.085,7.082A7.09,7.09,0,0,0,13875.922,4354.419Z" transform="translate(-13861.199 -4321.199)" fill="#fff"/>
</svg>
