<svg xmlns="http://www.w3.org/2000/svg" width="78.082" height="64" viewBox="0 0 78.082 64">
  <path id="Path_35662" data-name="Path 35662" d="M16038.038,4388a3.464,3.464,0,0,1-2.583-1.159l-35.582-39.945a3.477,3.477,0,0,1-.318-4.189l11.129-17.133a3.436,3.436,0,0,1,2.894-1.574h48.962a3.442,3.442,0,0,1,2.9,1.578l11.091,17.132a3.465,3.465,0,0,1-.319,4.183l-35.584,39.949A3.476,3.476,0,0,1,16038.038,4388Zm-11.823-42.3h0l11.823,38.377,11.821-38.377Zm25.334,0-10.856,35.239-1.556,4.875,3.575-3.738,32.4-36.375h-23.563Zm-50.583,0,32.4,36.375,3.632,3.911-1.614-5.048-10.86-35.239Zm11.2-19.438h0l-11.577,17.826h23.105l-11.528-17.826Zm51.793.009h0l-11.52,17.816h23.06l-11.54-17.816Zm-25.918.147h0l-11.435,17.669h22.867l-11.433-17.669Zm1.4-.8,11.513,17.793,11.508-17.793Zm-25.775,0,11.485,17.755,11.488-17.755Z" transform="translate(-15999 -4324.001)" fill="#fff"/>
</svg>
