<svg xmlns="http://www.w3.org/2000/svg" width="28.903" height="32" viewBox="0 0 28.903 32">
  <g id="_4213453-affiliate-connection-marketing-media-network-social-web_115376" data-name="4213453-affiliate-connection-marketing-media-network-social-web_115376" transform="translate(-8 -2)">
    <path id="Path_26549" data-name="Path 26549" d="M11.613,33.226A3.613,3.613,0,1,0,8,29.613,3.624,3.624,0,0,0,11.613,33.226Zm0-5.161a1.548,1.548,0,1,1-1.548,1.548A1.553,1.553,0,0,1,11.613,28.065Z" transform="translate(0 -17.806)" fill="#fff"/>
    <path id="Path_26550" data-name="Path 26550" d="M57.226,5.613a3.613,3.613,0,1,0-3.613,3.613A3.624,3.624,0,0,0,57.226,5.613Zm-5.161,0a1.548,1.548,0,1,1,1.548,1.548A1.553,1.553,0,0,1,52.065,5.613Z" transform="translate(-31.161)" fill="#fff"/>
    <path id="Path_26551" data-name="Path 26551" d="M57.226,101.613a3.613,3.613,0,1,0-3.613,3.613A3.624,3.624,0,0,0,57.226,101.613Zm-3.613,1.548a1.548,1.548,0,1,1,1.548-1.548A1.553,1.553,0,0,1,53.613,103.161Z" transform="translate(-31.161 -71.226)" fill="#fff"/>
    <path id="Path_26552" data-name="Path 26552" d="M11.613,81.226A3.613,3.613,0,1,0,8,77.613,3.624,3.624,0,0,0,11.613,81.226Zm0-5.161a1.548,1.548,0,1,1-1.548,1.548A1.553,1.553,0,0,1,11.613,76.065Z" transform="translate(0 -53.419)" fill="#fff"/>
    <path id="Path_26553" data-name="Path 26553" d="M95.613,33.226A3.613,3.613,0,1,0,92,29.613,3.624,3.624,0,0,0,95.613,33.226Zm0-5.161a1.548,1.548,0,1,1-1.548,1.548A1.553,1.553,0,0,1,95.613,28.065Z" transform="translate(-62.323 -17.806)" fill="#fff"/>
    <path id="Path_26554" data-name="Path 26554" d="M95.613,81.226A3.613,3.613,0,1,0,92,77.613,3.624,3.624,0,0,0,95.613,81.226Zm0-5.161a1.548,1.548,0,1,1-1.548,1.548A1.553,1.553,0,0,1,95.613,76.065Z" transform="translate(-62.323 -53.419)" fill="#fff"/>
    <path id="Path_26555" data-name="Path 26555" d="M40,46.194A6.194,6.194,0,1,0,46.194,40,6.212,6.212,0,0,0,40,46.194Zm6.194-4.129a4.129,4.129,0,1,1-4.129,4.129A4.141,4.141,0,0,1,46.194,42.065Z" transform="translate(-23.742 -28.194)" fill="#fff"/>
  </g>
</svg>
