<svg xmlns="http://www.w3.org/2000/svg" width="49.277" height="48" viewBox="0 0 49.277 48">
  <path id="Digital_Marketing" data-name="Digital Marketing" d="M19538.965,20250.2a6.21,6.21,0,0,1-5.918-4.293,1.561,1.561,0,0,1-.053-.25l-1.357-11.979-.617-.266a11.125,11.125,0,0,1,4.309-21.385h9.518l19.373-9.687a1.275,1.275,0,0,1,.584-.141,1.317,1.317,0,0,1,.682.2,1.293,1.293,0,0,1,.619,1.107v11.063l.867.23a8.624,8.624,0,0,1,0,16.719l-.867.223v11.068a1.293,1.293,0,0,1-.619,1.107,1.279,1.279,0,0,1-.687.191,1.256,1.256,0,0,1-.584-.139l-19.373-9.682h-2.5l2.529,7.77a6.228,6.228,0,0,1-3.99,7.836A6.041,6.041,0,0,1,19538.965,20250.2Zm-4.639-15.916v0l1.248,10.945.063.152a3.607,3.607,0,0,0,6.754-2.518l-2.791-8.58h-5.273Zm29.172-28.67h0l-17.043,8.521v18.041l17.043,8.52v-35.082Zm-28.17,9.018a8.522,8.522,0,0,0,0,17.045h8.521v-17.045Zm30.775,2.291h0v12.467l1.736-1.012a6.142,6.142,0,0,0,2.184-2.156,6,6,0,0,0,.842-3.068,6.094,6.094,0,0,0-3.025-5.225l-1.736-1.006Z" transform="translate(-19524.197 -20202.197)" fill="#ff0a2b"/>
</svg>
