<svg xmlns="http://www.w3.org/2000/svg" width="30.896" height="40.516" viewBox="0 0 30.896 40.516">
  <g id="Inbound_Marketing" data-name="Inbound Marketing" transform="translate(-3.75 -3.3)">
    <path id="Path_26556" data-name="Path 26556" d="M5,9V22.672c0,7.012,6.357,12.7,14.2,12.7s14.2-5.684,14.2-12.7V9" transform="translate(0 7.198)" fill="none" stroke="#fff" stroke-linecap="round" stroke-linejoin="round" stroke-width="2.5"/>
    <path id="Path_26557" data-name="Path 26557" d="M5,9h6.085" transform="translate(0 7.198)" fill="none" stroke="#fff" stroke-linecap="round" stroke-linejoin="round" stroke-width="2.5"/>
    <path id="Path_26558" data-name="Path 26558" d="M16,9h6.085" transform="translate(11.312 7.198)" fill="none" stroke="#fff" stroke-linecap="round" stroke-linejoin="round" stroke-width="2.5"/>
    <path id="Path_26559" data-name="Path 26559" d="M18.34,11.5v7.222a4.077,4.077,0,0,1-4.207,3.934,4.077,4.077,0,0,1-4.207-3.934V11.5" transform="translate(5.065 9.769)" fill="none" stroke="#fff" stroke-linecap="round" stroke-linejoin="round" stroke-width="2.5"/>
    <path id="Path_26560" data-name="Path 26560" d="M15.142,13H5" transform="translate(0 11.312)" fill="none" stroke="#fff" stroke-linejoin="round" stroke-width="2.5"/>
    <path id="Path_26561" data-name="Path 26561" d="M24.142,13H14" transform="translate(9.255 11.312)" fill="none" stroke="#fff" stroke-linejoin="round" stroke-width="2.5"/>
    <path id="Path_26562" data-name="Path 26562" d="M13.381,2,10,8.085h8.113L14.733,14.17" transform="translate(5.142 3)" fill="none" stroke="#fff" stroke-linecap="round" stroke-linejoin="round" stroke-width="2.5"/>
  </g>
</svg>
