<svg xmlns="http://www.w3.org/2000/svg" width="48.867" height="48" viewBox="0 0 48.867 48">
  <path id="MobileDesign" d="M19537.793,20248a5.822,5.822,0,0,1-5.844-5.787v-12.838a10.681,10.681,0,0,1,0-21.311v-.523c0-.609,0-1.244.006-1.867a5.759,5.759,0,0,1,1.756-4.023,5.847,5.847,0,0,1,4.086-1.65h17.273a5.835,5.835,0,0,1,4.1,1.666,5.718,5.718,0,0,1,1.744,4.051c.014,4.67.01,9.424.006,14.018-.006,3.844-.016,7.813-.006,11.717h6.529a3.438,3.438,0,0,1,3.422,3.428v9.7a3.434,3.434,0,0,1-3.422,3.422Zm10.861-14.139a1.439,1.439,0,0,0-.412,1.012v9.7a1.407,1.407,0,0,0,1.424,1.428h17.777a1.411,1.411,0,0,0,1.422-1.428v-9.7a1.407,1.407,0,0,0-1.422-1.422h-17.777A1.423,1.423,0,0,0,19548.654,20233.863Zm-14.705,8.352a3.779,3.779,0,0,0,3.848,3.789h8.775a3.269,3.269,0,0,1-.314-1.176h-1.443a1,1,0,0,1,0-2h1.428v-1.234h-12.293Zm0-34.119a10.695,10.695,0,0,1,0,21.242v10.262h12.293v-4.725a3.426,3.426,0,0,1,3.424-3.422h9.254v-24.664h-24.971Zm-9.951,10.623a8.7,8.7,0,1,0,8.7-8.7A8.706,8.706,0,0,0,19524,20218.719Zm10.082-13.928h24.709a3.789,3.789,0,0,0-3.719-2.795H19537.8A3.785,3.785,0,0,0,19534.08,20204.791Zm21.553,40a1,1,0,0,1-.369-1.361l4.855-8.406a1.01,1.01,0,0,1,.852-.5.974.974,0,0,1,.508.148,1,1,0,0,1,.369,1.359l-4.85,8.4a1,1,0,0,1-1.365.357Zm-15.668.039a1,1,0,0,1,0-2h1.623a1.008,1.008,0,0,1,.707.295.983.983,0,0,1,.289.707,1,1,0,0,1-1,1Zm22.977-1.506a.995.995,0,0,1,0-1.414l2.281-2.283-2.078-2.078a1,1,0,0,1,0-1.408l.412-.416-.029.18a1.012,1.012,0,0,1,1.006.219l.021.018,2.781,2.789a1,1,0,0,1,0,1.408l-2.98,2.986a.995.995,0,0,1-1.414,0Zm-10.187,0-2.992-2.986a1.007,1.007,0,0,1,0-1.408l2.8-2.8a1.1,1.1,0,0,1,.711-.275.986.986,0,0,1,.688.281l.01,0a1.007,1.007,0,0,1,0,1.408c-.625.625-1.008,1.008-1.346,1.348-.244.24-.465.465-.736.74l2.275,2.273a1,1,0,1,1-1.408,1.414Zm-19.221-21.016a1,1,0,0,1,0-1.41l2.283-2.273-2.084-2.086a.991.991,0,0,1,0-1.4l.012-.016a1.06,1.06,0,0,1,.68-.283,1.175,1.175,0,0,1,.7.279l.02.02,2.787,2.783a1.009,1.009,0,0,1,0,1.41l-2.984,2.984a1,1,0,0,1-1.414,0Zm-3.32,0-2.99-2.984a1,1,0,0,1,0-1.41l2.8-2.8a1.094,1.094,0,0,1,.7-.266h.006a1.016,1.016,0,0,1,.686.271l.01.01a.991.991,0,0,1,0,1.4l-2.086,2.086,2.285,2.273a1,1,0,1,1-1.408,1.414Zm14.6-17.885a.979.979,0,0,1-.7-.293,1,1,0,0,1,.7-1.705h3.238a1,1,0,0,1,.994,1,1,1,0,0,1-.994,1Z" transform="translate(-19521.998 -20200.002)" fill="#ff0a2b"/>
</svg>
