<svg xmlns="http://www.w3.org/2000/svg" xmlns:xlink="http://www.w3.org/1999/xlink" width="64" height="64" viewBox="0 0 64 64">
  <defs>
    <linearGradient id="linear-gradient" x2="0.801" y2="1.269" gradientUnits="objectBoundingBox">
      <stop offset="0" stop-color="#3d3e42"/>
      <stop offset="1" stop-color="#191919"/>
    </linearGradient>
  </defs>
  <g id="Group_55530" data-name="Group 55530" transform="translate(-143 -3387)">
    <rect id="Rectangle_13021" data-name="Rectangle 13021" width="64" height="64" rx="18" transform="translate(143 3387)" fill="url(#linear-gradient)"/>
    <g id="top_page_icon_148991" transform="translate(155 3351.441)">
      <path id="Path_26571" data-name="Path 26571" d="M39.765,52H.392A.392.392,0,0,0,0,52.392V83.608A.392.392,0,0,0,.392,84H39.765a.392.392,0,0,0,.392-.392V52.392A.392.392,0,0,0,39.765,52ZM37.647,81.49H2.51V60.838H37.647Zm0-23.162H2.51V54.51H37.647Z" fill="#fff"/>
      <path id="Path_26572" data-name="Path 26572" d="M159.21,181.247V171.216L163,175.389a.327.327,0,0,0,.465.02l1.293-1.2a.327.327,0,0,0,.019-.458l-6.51-7.137a.327.327,0,0,0-.482,0l-6.55,7.172a.327.327,0,0,0,.018.458l1.293,1.2a.327.327,0,0,0,.465-.02l3.785-4.169v9.991a.327.327,0,0,0,.327.327h1.765A.327.327,0,0,0,159.21,181.247Z" transform="translate(-137.922 -103.019)" fill="#fff"/>
    </g>
  </g>
</svg>
