<svg xmlns="http://www.w3.org/2000/svg" width="70.736" height="34.638" viewBox="0 0 70.736 34.638">
  <g id="Social_Media_Optimization" data-name="Social Media Optimization" transform="translate(-1028.75 -2783.75)">
    <path id="Icon_feather-twitter" data-name="Icon feather-twitter" d="M26.609,4.5a12.44,12.44,0,0,1-3.584,1.746,5.113,5.113,0,0,0-8.971,3.424v1.141A12.167,12.167,0,0,1,3.783,5.638S-.783,15.91,9.489,20.475A13.285,13.285,0,0,1,1.5,22.758c10.272,5.707,22.827,0,22.827-13.125a5.136,5.136,0,0,0-.091-.947A8.811,8.811,0,0,0,26.609,4.5Z" transform="translate(1055.444 2792.035)" fill="rgba(0,0,0,0)" stroke="#fff" stroke-linecap="round" stroke-linejoin="round" stroke-width="2.5"/>
    <path id="Icon_awesome-facebook-f" data-name="Icon awesome-facebook-f" d="M11.859,11.52l.569-3.706H8.872V5.408a1.853,1.853,0,0,1,2.09-2h1.617V.25A19.716,19.716,0,0,0,9.708,0C6.779,0,4.865,1.775,4.865,4.989V7.814H1.609V11.52H4.865v8.96H8.872V11.52Z" transform="translate(1086.908 2785)" fill="#fff"/>
    <g id="Icon_feather-instagram" data-name="Icon feather-instagram" transform="translate(1030 2785)">
      <path id="Path_26539" data-name="Path 26539" d="M8.12,3H18.36a5.12,5.12,0,0,1,5.12,5.12V18.36a5.12,5.12,0,0,1-5.12,5.12H8.12A5.12,5.12,0,0,1,3,18.36V8.12A5.12,5.12,0,0,1,8.12,3Z" transform="translate(-3 -3)" fill="none" stroke="#fff" stroke-linecap="round" stroke-linejoin="round" stroke-width="2.5"/>
      <path id="Path_26540" data-name="Path 26540" d="M20.212,15.43a4.1,4.1,0,1,1-3.451-3.451,4.1,4.1,0,0,1,3.451,3.451Z" transform="translate(-5.877 -5.835)" fill="none" stroke="#fff" stroke-linecap="round" stroke-linejoin="round" stroke-width="2.5"/>
      <path id="Path_26541" data-name="Path 26541" d="M26.25,9.75h0" transform="translate(-10.378 -5.142)" fill="none" stroke="#fff" stroke-linecap="round" stroke-linejoin="round" stroke-width="2.5"/>
    </g>
  </g>
</svg>
