<svg xmlns="http://www.w3.org/2000/svg" xmlns:xlink="http://www.w3.org/1999/xlink" width="507" height="183" viewBox="0 0 507 183">
  <defs>
    <clipPath id="clip-path">
      <rect id="Rectangle_16163" data-name="Rectangle 16163" width="507" height="183" transform="translate(113 2923)" fill="#fff" stroke="#707070" stroke-width="1"/>
    </clipPath>
  </defs>
  <g id="Mask_Group_299" data-name="Mask Group 299" transform="translate(-113 -2923)" clip-path="url(#clip-path)">
    <path id="Path_35551" data-name="Path 35551" d="M60.24-27.84l31.68-31.2c19.92-19.44,29.76-34.8,29.76-56.4,0-31.68-21.6-51.36-55.2-51.36-33.36,0-57.36,20.64-57.36,56.88l33.36-.24c0-18.24,10.08-27.6,24.24-27.6,12.96,0,21.36,7.2,21.36,22.32,0,13.92-8.16,24.96-19.2,36L11.76-22.08V0H124.32V-27.84Zm138,29.28c42,0,66.96-29.76,66.96-83.76,0-54.24-24.96-84.24-66.96-84.24-41.76,0-66.72,30-66.72,84.24C131.52-28.32,156.48,1.44,198.24,1.44Zm0-28.8c-21.36,0-33.36-18-33.36-54.96,0-37.2,12-55.44,33.36-55.44,21.6,0,33.6,18.24,33.6,55.44C231.84-45.36,219.84-27.36,198.24-27.36Zm138.48-.48v-136.8H311.04c-7.68,14.64-18.48,19.92-36.96,19.92v27.6c13.92,0,21.36-1.44,29.76-5.76v95.04H273.6V0h88.8V-27.84ZM373.92,0H410.4l60-137.76v-26.88H355.68v27.84H434.4v.24Z" transform="translate(119 3097.181)" fill="#111" stroke="#fff" stroke-width="1.5"/>
  </g>
</svg>
