<svg xmlns="http://www.w3.org/2000/svg" xmlns:xlink="http://www.w3.org/1999/xlink" width="507" height="183" viewBox="0 0 507 183">
  <defs>
    <clipPath id="clip-path">
      <rect id="Rectangle_16163" data-name="Rectangle 16163" width="507" height="183" transform="translate(113 2923)" fill="#fff" stroke="#707070" stroke-width="1"/>
    </clipPath>
  </defs>
  <g id="Mask_Group_299" data-name="Mask Group 299" transform="translate(-113 -2923)" clip-path="url(#clip-path)">
    <path id="Path_35551" data-name="Path 35551" d="M60.24-27.84l31.68-31.2c19.92-19.44,29.76-34.8,29.76-56.4,0-31.68-21.6-51.36-55.2-51.36-33.36,0-57.36,20.64-57.36,56.88l33.36-.24c0-18.24,10.08-27.6,24.24-27.6,12.96,0,21.36,7.2,21.36,22.32,0,13.92-8.16,24.96-19.2,36L11.76-22.08V0H124.32V-27.84Zm138,29.28c42,0,66.96-29.76,66.96-83.76,0-54.24-24.96-84.24-66.96-84.24-41.76,0-66.72,30-66.72,84.24C131.52-28.32,156.48,1.44,198.24,1.44Zm0-28.8c-21.36,0-33.36-18-33.36-54.96,0-37.2,12-55.44,33.36-55.44,21.6,0,33.6,18.24,33.6,55.44C231.84-45.36,219.84-27.36,198.24-27.36Zm138.48-.48v-136.8H311.04c-7.68,14.64-18.48,19.92-36.96,19.92v27.6c13.92,0,21.36-1.44,29.76-5.76v95.04H273.6V0h88.8V-27.84ZM373.92,0H410.4l60-137.76v-26.88H355.68v27.84H434.4v.24Z" transform="translate(104 2900)" fill="#111" stroke="#fff" stroke-width="1.5"/>
    <path id="Path_35549" data-name="Path 35549" d="M16125,20404.037l33.073.24c.236,17.014,11.5,23.961,26.842,23.961,15.817,0,25.881-7.187,25.64-20.85,0-15.576-10.541-22.287-27.077-22.287h-15.341v-25.4h14.139c14.858,0,24.685-6.953,24.927-20.85,0-14.623-10.3-20.85-22.528-20.85-12.943,0-23.489,7.188-23.489,25.162h-33.068c-.241-33.553,23.725-53.924,57.034-54.16,31.878,0,55.361,18.93,55.6,49.129,0,15.1-6.951,26.121-17.733,33.072,12.7,7.43,20.85,19.412,21.091,37.146.236,29.957-27.082,48.891-60.633,48.891C16149.2,20457.24,16125,20438.064,16125,20404.037Zm-258.6-30.559c0-54.236,24.962-84.24,66.723-84.24,42,0,66.959,30,66.959,84.24,0,54-24.957,83.762-66.959,83.762C15891.359,20457.24,15866.4,20427.479,15866.4,20373.479Zm33.361,0c0,36.965,12,54.965,33.361,54.965,21.6,0,33.6-18,33.6-54.965,0-37.2-12-55.437-33.6-55.437C15911.757,20318.041,15899.759,20336.281,15899.759,20373.479Zm110.4,82.324v-22.082l57.117-57.357c11.043-11.043,19.2-22.082,19.2-36,0-15.125-8.4-22.322-21.362-22.322-14.16,0-24.238,9.359-24.238,27.6l-33.361.242c0-36.242,24-56.881,57.363-56.881,33.6,0,55.2,19.68,55.2,51.361,0,21.6-9.837,36.955-29.757,56.4l-31.683,31.2h64.084v27.842Zm-263.522,0v-22.082l57.122-57.357c11.038-11.043,19.2-22.082,19.2-36,0-15.125-8.4-22.322-21.357-22.322-14.16,0-24.238,9.359-24.238,27.6l-33.361.242c0-36.242,24-56.881,57.357-56.881,33.6,0,55.2,19.68,55.2,51.361,0,21.6-9.842,36.955-29.763,56.4l-31.677,31.2h64.078v27.842Z" transform="translate(-15630.5 -17354)" fill="#111" stroke="#fff" stroke-width="1.5"/>
  </g>
</svg>
