<svg xmlns="http://www.w3.org/2000/svg" width="64" height="64" viewBox="0 0 64 64">
  <g id="Group_63512" data-name="Group 63512" transform="translate(-9 -9)">
    <path id="Path_35667" data-name="Path 35667" d="M28.462,42.008a2.48,2.48,0,0,0-1.753-4.231A1.914,1.914,0,0,1,24.8,35.866V32.807A1.914,1.914,0,0,1,26.709,30.9a2.48,2.48,0,0,0,1.752-4.231,1.914,1.914,0,0,1,0-2.7L30.625,21.8a1.912,1.912,0,0,1,2.7,0,2.48,2.48,0,0,0,4.231-1.752,1.914,1.914,0,0,1,1.912-1.912h3.059a1.914,1.914,0,0,1,1.912,1.912A2.48,2.48,0,0,0,48.672,21.8a1.914,1.914,0,0,1,2.7,0l2.163,2.163a1.914,1.914,0,0,1,0,2.7A2.48,2.48,0,0,0,55.291,30.9,1.914,1.914,0,0,1,57.2,32.807v3.059a1.914,1.914,0,0,1-1.912,1.912,2.48,2.48,0,0,0-1.752,4.231,1.912,1.912,0,0,1,0,2.7l-2.163,2.163a1.914,1.914,0,0,1-2.7,0,2.421,2.421,0,0,0-2.21-.683.907.907,0,0,1-.35-1.78,4.21,4.21,0,0,1,3.842,1.18.1.1,0,0,0,.138,0l2.163-2.163a.1.1,0,0,0,0-.138,4.294,4.294,0,0,1,3.035-7.327.1.1,0,0,0,.1-.1V32.807a.1.1,0,0,0-.1-.1,4.294,4.294,0,0,1-3.035-7.327.1.1,0,0,0,0-.138L50.093,23.08a.1.1,0,0,0-.138,0,4.294,4.294,0,0,1-7.327-3.035.1.1,0,0,0-.1-.1H39.471a.1.1,0,0,0-.1.1,4.294,4.294,0,0,1-7.327,3.035.1.1,0,0,0-.138,0l-2.163,2.163a.1.1,0,0,0,0,.138,4.294,4.294,0,0,1-3.035,7.327.1.1,0,0,0-.1.1v3.059a.1.1,0,0,0,.1.1,4.294,4.294,0,0,1,3.035,7.327.1.1,0,0,0,0,.138l2.163,2.163a.1.1,0,0,0,.138,0,4.209,4.209,0,0,1,3.886-1.174.907.907,0,1,1-.367,1.776,2.423,2.423,0,0,0-2.236.68,1.912,1.912,0,0,1-2.7,0l-2.163-2.163a1.912,1.912,0,0,1,0-2.7Zm4.487,16.757a.907.907,0,0,0-.907-.907H9.907a.907.907,0,0,0,0,1.814H32.041a.907.907,0,0,0,.907-.907ZM41,27.894A6.442,6.442,0,0,1,45.64,38.8a.907.907,0,1,0,1.306,1.258A8.256,8.256,0,1,0,35.1,40.11a.907.907,0,0,0,1.3-1.269A6.442,6.442,0,0,1,41,27.894Zm31.734,30.23L68.9,54.288a.907.907,0,1,0-1.282,1.283L69.9,57.858H62.425a.907.907,0,0,0,0,1.814H69.9l-2.287,2.287A.907.907,0,0,0,68.9,63.242l3.836-3.835a.907.907,0,0,0,0-1.283ZM65.607,28.3l2.1,1.211a.907.907,0,1,0,.907-1.571l-3.77-2.177a25.337,25.337,0,0,0-48.171,1.5l-1.211-2.1a.907.907,0,1,0-1.571.907l2.175,3.767a25.363,25.363,0,0,0,13.294,27,.907.907,0,1,0,.835-1.61,23.543,23.543,0,0,1-12.36-24.978l3.7-2.136a.907.907,0,1,0-.907-1.571l-2.234,1.29A23.524,23.524,0,0,1,63.1,26.286l-2.135,3.7a.907.907,0,1,0,1.571.907l1.29-2.234a23.535,23.535,0,0,1-4.137,19.961.907.907,0,1,0,1.44,1.1A25.347,25.347,0,0,0,65.607,28.3ZM60.7,53.279l.064,8.057a11.857,11.857,0,0,1-3.71,8.57A11.3,11.3,0,0,1,49.243,73q-.34,0-.682-.02c-5.831-.334-7.631-1.841-10.613-4.338-1.023-.856-2.181-1.827-3.722-2.945a4.145,4.145,0,0,1-1.044-5.629,3.7,3.7,0,0,1,4.251-1.513l0-19.608A3.6,3.6,0,0,1,41.02,35.36h0a3.6,3.6,0,0,1,3.587,3.592L44.6,50.185a3.471,3.471,0,0,1,1.787-.5h0a3.564,3.564,0,0,1,2.535,1.055q.075.075.144.153.071-.079.147-.155a3.563,3.563,0,0,1,2.534-1.052h0a3.564,3.564,0,0,1,2.537,1.057q.073.074.142.15.07-.079.146-.154a3.562,3.562,0,0,1,2.534-1.053h0A3.6,3.6,0,0,1,60.7,53.279Zm-1.75,8.062-.064-8.056A1.783,1.783,0,0,0,57.11,51.5h0a1.781,1.781,0,0,0-1.774,1.769v.008a.907.907,0,0,1-.907.905h0a.907.907,0,0,1-.906-.906V53.27A1.78,1.78,0,0,0,51.748,51.5h0a1.782,1.782,0,0,0-1.774,1.775v0a.907.907,0,0,1-.907.905h0a.907.907,0,0,1-.906-.907v-.008A1.781,1.781,0,0,0,46.386,51.5h0a1.737,1.737,0,0,0-1.23.534,1.891,1.891,0,0,0-.56,1.3v.028a.907.907,0,0,1-.905.906h0a.907.907,0,0,1-.907-.9v-.038L42.8,38.949a1.783,1.783,0,0,0-1.775-1.776h0a1.783,1.783,0,0,0-1.775,1.774l0,20.8a.907.907,0,0,1-1.193.861,6.09,6.09,0,0,0-1.855-.376,1.584,1.584,0,0,0-1.5.83,2.333,2.333,0,0,0,.592,3.168c1.591,1.155,2.776,2.147,3.821,3.022,2.877,2.409,4.321,3.619,9.552,3.918a9.519,9.519,0,0,0,7.143-2.583A10.029,10.029,0,0,0,58.948,61.341Z" fill="#fff"/>
  </g>
</svg>
