<svg xmlns="http://www.w3.org/2000/svg" width="43.229" height="64" viewBox="0 0 43.229 64">
  <path id="Path_35415" data-name="Path 35415" d="M12838.751,4322.4h-39.473a1.88,1.88,0,0,1-1.879-1.878V4314.3a1.88,1.88,0,0,1,1.879-1.877h2.275v-8.509a1.878,1.878,0,0,1,1.874-1.878h5.4v-12.667a1.877,1.877,0,0,1,1.877-1.875h1.242v-4.358a.028.028,0,0,1,0-.017v-.827c0-.86.314-1.035,1.872-1.035h.2v-2.276a1.878,1.878,0,0,1,1.874-1.878h.2v-11.625a2.923,2.923,0,0,1,1.945-2.741l.133-.045V4258.4h1.677v4.287l.134.045a2.924,2.924,0,0,1,1.945,2.741V4277.1h.2a1.879,1.879,0,0,1,1.876,1.878v2.276h.2c1.437,0,1.875.242,1.875,1.035v5.2h1.242a1.879,1.879,0,0,1,1.877,1.877v12.667h5.4a1.879,1.879,0,0,1,1.875,1.878v8.509h2.279a1.879,1.879,0,0,1,1.877,1.877v6.227A1.879,1.879,0,0,1,12838.751,4322.4Zm-3.956-5.824h1.677v4.151h2.483l0-6.431v-.2h-11.83v6.635h3.518v-4.151h1.677v4.151h2.479v-4.15Zm-14.542,0h1.677v4.151h3.519v-6.635h-12.868v6.635h3.516v-4.151h1.676v4.151h2.481v-4.15Zm-14.545,0h1.677v4.151h3.519v-6.635h-11.827l0,6.431v.2h2.48v-4.151h1.674v4.151h2.48v-4.15Zm24.731-10.394a1.88,1.88,0,0,1,1.877,1.878v4.358h2.481V4303.7h-5.6v2.478Zm-4.358,1.674v4.563h4.559v-4.562Zm-3.113-18.693v23.255h1.439v-4.355a1.878,1.878,0,0,1,1.874-1.877h1.242v-17.022Zm-6.233,0v23.255h4.557v-23.255Zm-4.99,17.022a1.878,1.878,0,0,1,1.874,1.877v4.355h1.442v-23.255h-4.559v17.022Zm-4.359,1.677v4.556h4.56v-4.556Zm-4.157-4.158v8.714h2.48v-4.355a1.879,1.879,0,0,1,1.878-1.877h1.239V4303.7Zm18.7-20.774v4.56h2.478v-4.56Zm-4.155,0,0,4.355v.2h2.481v-4.557Zm-4.153,0,0,4.355v.2h2.478v-4.557Zm2.078-4.154v2.477h6.633v-2.477Zm2.072-6.233v4.556h2.481v-4.556Zm0-4.158v2.481h2.481v-2.481Zm1.239-4.15a1.241,1.241,0,0,0-1.239,1.239v1.238h2.481v-1.238A1.241,1.241,0,0,0,12819.011,4264.234Z" transform="translate(-12797.399 -4258.4)" fill="#ff0a2b"/>
</svg>
