<svg xmlns="http://www.w3.org/2000/svg" width="40.215" height="40" viewBox="0 0 40.215 40">
  <g id="Group_63249" data-name="Group 63249" transform="translate(-104 -4009)">
    <rect id="Rectangle_16146" data-name="Rectangle 16146" width="40" height="40" rx="4" transform="translate(104 4009)" fill="rgba(255,10,43,0)"/>
    <path id="Path_35539" data-name="Path 35539" d="M17653.3,4361.3a3.352,3.352,0,0,1-1.121-6.51l.148-.052v-2.951h-15.467a.975.975,0,0,1-.971-.979v-22.915l-.148-.046a3.468,3.468,0,0,1-2.439-3.315v-2.26a.973.973,0,0,1,.971-.973h38.264a.977.977,0,0,1,.979.973v2.26a3.469,3.469,0,0,1-2.441,3.315l-.15.046v22.915a.978.978,0,0,1-.973.979h-15.676v2.951l.145.052a3.351,3.351,0,0,1-1.119,6.51Zm0-4.757a1.405,1.405,0,1,0,1.406,1.4A1.4,1.4,0,0,0,17653.3,4356.544ZM17637.83,4328h0v21.835h31.143V4328Zm-2.586-4.756h0v1.287a1.525,1.525,0,0,0,1.523,1.522h33.268a1.526,1.526,0,0,0,1.529-1.522v-1.287Zm29.947,23.78H17641.4a.973.973,0,0,1,0-1.946h23.787a.973.973,0,0,1,0,1.946Zm-23.537-4.756a.944.944,0,0,1-.59-.2.991.991,0,0,1-.379-.646.954.954,0,0,1,.2-.717l5.283-6.875a.988.988,0,0,1,.732-.378h.039a.944.944,0,0,1,.717.32l3.908,4.3.156.167,6.945-7.144a1.023,1.023,0,0,1,.7-.288.987.987,0,0,1,.7.295l5.576,5.812a.973.973,0,0,1-.025,1.37.966.966,0,0,1-.672.275.979.979,0,0,1-.709-.3l-4.881-5.075-6.965,7.163a.928.928,0,0,1-.689.288h-.023a1.008,1.008,0,0,1-.707-.32l-3.795-4.18-.176-.192-4.582,5.946A.94.94,0,0,1,17641.654,4342.271Z" transform="translate(-17529.297 -312.301)" fill="#ff0a2b"/>
  </g>
</svg>
