<svg xmlns="http://www.w3.org/2000/svg" width="342.852" height="377.324" viewBox="0 0 342.852 377.324">
  <g id="Group_63208" data-name="Group 63208" transform="translate(20290.102 18607.898)">
    <g id="Group_63208-2" data-name="Group 63208" transform="translate(42 -97.824)">
      <circle id="Ellipse_13547" data-name="Ellipse 13547" cx="147" cy="147" r="147" transform="translate(-20284 -18509.324)" fill="none" stroke="#ff0a2b" stroke-linecap="round" stroke-linejoin="round" stroke-width="1.5" stroke-dasharray="1 6"/>
      <g id="Group_63208-3" data-name="Group 63208" transform="translate(-34.67 672.656)">
        <path id="Path_35514" data-name="Path 35514" d="M12.013,54.666A43.069,43.069,0,1,0,55.082,11.6c-4.553.564-6.921,1.3-8.4,2.06-1.188.6-1.07,1.187-2.086.171L30.767,0,0,30.767,14.844,45.612C12.273,49.041,12.013,54.666,12.013,54.666Z" transform="translate(-20176.449 -18935.162) rotate(-135)" fill="#515050"/>
        <rect id="Rectangle_16138" data-name="Rectangle 16138" width="45.336" height="5.44" transform="translate(-20193.359 -18952.283)" fill="#515050"/>
        <rect id="Rectangle_16139" data-name="Rectangle 16139" width="30.828" height="5.44" transform="translate(-20186.105 -18943.123)" fill="#515050"/>
        <path id="Path_35503" data-name="Path 35503" d="M12.013,54.666A43.069,43.069,0,1,0,55.082,11.6c-4.553.564-6.921,1.3-8.4,2.06-1.188.6-1.07,1.187-2.086.171L30.767,0,0,30.767,14.844,45.612C12.273,49.041,12.013,54.666,12.013,54.666Z" transform="translate(-20167.316 -18935.162) rotate(-135)" fill="#111" stroke="#737373" stroke-linecap="round" stroke-linejoin="round" stroke-width="1.5"/>
        <rect id="Rectangle_16135" data-name="Rectangle 16135" width="45.336" height="5.44" transform="translate(-20189.824 -18953.283)" fill="#111" stroke="#737373" stroke-linecap="round" stroke-linejoin="round" stroke-width="1.5"/>
        <rect id="Rectangle_16136" data-name="Rectangle 16136" width="30.828" height="5.44" transform="translate(-20182.57 -18944.123)" fill="#111" stroke="#737373" stroke-linecap="round" stroke-linejoin="round" stroke-width="1.5"/>
        <path id="Path_35504" data-name="Path 35504" d="M-20189.879-18987.691v16.148l11.914,11.914v21.852" transform="translate(-4.369 -18.899)" fill="none" stroke="#737373" stroke-width="1.5"/>
        <path id="Path_35505" data-name="Path 35505" d="M-20135.842-18973.99v9.146l-8.193,8.193v20.375" transform="translate(-8.646 -20.179)" fill="none" stroke="#737373" stroke-width="1.5"/>
        <path id="Path_35506" data-name="Path 35506" d="M-20143.74-18986.32v17.164l-7.205,7.2v24.076" transform="translate(-8.001 -19.029)" fill="none" stroke="#737373" stroke-width="1.5"/>
        <path id="Path_35507" data-name="Path 35507" d="M-20153.754-19014.84v37.264l-7.172,7.172v30.318" transform="translate(-7.07 -16.369)" fill="none" stroke="#737373" stroke-width="1.5"/>
        <path id="Path_35508" data-name="Path 35508" d="M-20178.047-19002.385v11.406l8.924,8.922v43.021" transform="translate(-5.473 -17.531)" fill="none" stroke="#737373" stroke-width="1.5"/>
        <circle id="Ellipse_13590" data-name="Ellipse 13590" cx="4.534" cy="4.534" r="4.534" transform="translate(-20165.344 -19036.795)" fill="#ff0a2b"/>
        <circle id="Ellipse_13591" data-name="Ellipse 13591" cx="4.534" cy="4.534" r="4.534" transform="translate(-20156.275 -19012.313)" fill="#ff0a2b"/>
        <circle id="Ellipse_13592" data-name="Ellipse 13592" cx="4.534" cy="4.534" r="4.534" transform="translate(-20149.021 -18999.619)" fill="#ff0a2b"/>
        <circle id="Ellipse_13593" data-name="Ellipse 13593" cx="4.534" cy="4.534" r="4.534" transform="translate(-20188.012 -19025.006)" fill="#ff0a2b"/>
        <circle id="Ellipse_13594" data-name="Ellipse 13594" cx="4.534" cy="4.534" r="4.534" transform="translate(-20198.893 -19011.406)" fill="#ff0a2b"/>
      </g>
      <path id="Path_35513" data-name="Path 35513" d="M-20287.205-18912.016l21.615-55s-3.559-34.748,9.576-63.479,47.334-63.2,102.605-61.289,96.586,55.545,89.746,111.908-26.539,39.127-25.992,99.869,1.641,74.971,1.641,74.971h-88.924s7.662-46.516-14.5-46.516h-38.033s-20.521,1.914-20.521-21.342v-39.127Z" transform="translate(-43.795 671.531)" fill="none" stroke="#737373" stroke-width="1.5"/>
    </g>
    <path id="Path_35509" data-name="Path 35509" d="M46.845,62.923l-.04,0a.715.715,0,0,1-.513-.4l-3.274-6.549L32.236,51.831a.71.71,0,0,1-.4-.395L21.646,25.954A.708.708,0,0,1,21.8,25.2l3.4-3.4a.7.7,0,0,1,.5-.207.694.694,0,0,1,.262.051l25.48,10.185a.715.715,0,0,1,.4.4l4.145,10.783,6.553,3.276a.712.712,0,0,1,.394.518.722.722,0,0,1-.213.613L47.426,62.709a.71.71,0,0,1-.5.21H46.9Zm8.723-18.512L44.4,55.576l2.719,5.438L61.006,47.129ZM24,25l-.871.863,9.905,24.76,10.323,3.968L54.591,43.354,50.623,33.031l-24.76-9.906L25,24,38.043,37.039l.189-.134a5.513,5.513,0,1,1-1.325,1.325l.134-.189L24,25ZM41.4,37.307h0a4.1,4.1,0,1,0,4.018,3.3,4.073,4.073,0,0,0-4.018-3.3ZM18.341,62.919a.714.714,0,0,1-.5-.209L13.529,58.4a.71.71,0,0,1,0-1l1.831-1.837-.144-.19a28.733,28.733,0,0,1-3.332-28.79l-.446-.306-5.81,5.8.086.177a2.748,2.748,0,1,1-1.266-1.265l.177.085L14.51,21.2l-.126-.188a4.776,4.776,0,0,1,6.626-6.627l.188.127,9.871-9.885-.087-.178A2.74,2.74,0,1,1,32.26,5.711l-.176-.083-5.809,5.793.305.447A28.526,28.526,0,0,1,38.113,9.448a28.883,28.883,0,0,1,17.26,5.767l.19.143L57.4,13.533a.71.71,0,0,1,1,0l4.313,4.314a.709.709,0,0,1,0,1L58.4,23.161a.709.709,0,0,1-1,0l-4.337-4.3a.719.719,0,0,1,0-1l1.5-1.46L54.3,16.2a27.284,27.284,0,0,0-31.671-.5l-.2.141.118.217a4.8,4.8,0,0,1-.826,5.661,4.771,4.771,0,0,1-5.665.8l-.218-.12-.142.205a27.3,27.3,0,0,0,.5,31.67l.19.258,1.473-1.474a.739.739,0,0,1,1.008,0l4.3,4.335a.709.709,0,0,1,0,1l-4.319,4.314A.705.705,0,0,1,18.341,62.919Zm.014-8.352h0l-3.311,3.312,3.311,3.311,3.312-3.311-3.312-3.312ZM3.261,32.123a1.32,1.32,0,0,0-.931.382l-.018.02A1.324,1.324,0,0,0,3.327,34.7a1.327,1.327,0,0,0,.848-.307l.018-.017a1.309,1.309,0,0,0,.387-.931,1.314,1.314,0,0,0-1.319-1.316ZM18.355,14.995a3.361,3.361,0,0,0,0,6.723,3.361,3.361,0,0,0,0-6.723Zm39.553.029h0L54.6,18.335l3.312,3.311,3.312-3.311-3.312-3.312ZM33.447,1.932a1.325,1.325,0,1,0,.5.1A1.317,1.317,0,0,0,33.447,1.932Z" transform="translate(-20069.639 -18594.389) rotate(45)" fill="#737373"/>
    <g id="Group_63209" data-name="Group 63209" transform="translate(-20055.719 -18375.973)">
      <rect id="Rectangle_16137" data-name="Rectangle 16137" width="50" height="72" transform="translate(12.719 4.973)" fill="#111"/>
      <path id="Path_35510" data-name="Path 35510" d="M82.138,52.314c-.531-1.063-.657-.769-18.021-.769,0-35.441.154-34.952-.14-35.525-.168-.363.7.559-11.45-11.6-.643-.629.951-.405-40.139-.405a1.4,1.4,0,0,0-1.4,1.4V23.584H5.4a1.4,1.4,0,0,0-1.4,1.4V44.555a1.4,1.4,0,0,0,1.4,1.4H10.99V75.313a1.4,1.4,0,0,0,1.4,1.4H34.758V80.9a1.4,1.4,0,0,0,1.4,1.4H80.894a1.4,1.4,0,0,0,1.4-1.4C82.292,51.685,82.362,52.748,82.138,52.314Zm-7.172,2.027L58.525,62.562,42.083,54.342ZM59.35,15.2H52.932V8.778ZM6.8,26.38H31.961V43.157H6.8Zm6.99,47.534V45.953H33.359a1.4,1.4,0,0,0,1.4-1.4V24.982a1.4,1.4,0,0,0-1.4-1.4H13.786V6.807h36.35v9.786a1.4,1.4,0,0,0,1.4,1.4h9.786V51.545c-25.627,0-25.864-.322-26.41.769-.238.461-.154-.461-.154,21.6Zm23.767,5.592v-24.3C59.727,66.3,58.035,65.526,58.525,65.526s-1.077.7,20.971-10.318v24.3Z" fill="#737373" stroke="#111" stroke-width="1.5"/>
      <path id="Path_35511" data-name="Path 35511" d="M72.465,49.563a1.4,1.4,0,0,0,1.132.573c.909,0,.727,0,5.411-6.138.419-.545.294,1.734.294-30.212a2.8,2.8,0,0,0-1.4-2.4V8.194a4.194,4.194,0,0,0-8.388,0v3.188a2.8,2.8,0,0,0-1.4,2.4c0,32.156-.112,29.653.266,30.184Zm4.04-6.892L73.625,46.4l-2.712-3.719v-28.9h5.592ZM72.311,8.194a1.4,1.4,0,0,1,2.8,0v2.8h-2.8ZM16.388,33.359a4.194,4.194,0,1,0-4.194,4.194,4.194,4.194,0,0,0,4.194-4.194Zm-5.592,0a1.4,1.4,0,1,1,1.4,1.4A1.4,1.4,0,0,1,10.8,33.359Zm9.786,2.8h5.592a1.4,1.4,0,1,0,0-2.8H20.583a1.4,1.4,0,1,0,0,2.8Zm0,4.194h5.592a1.4,1.4,0,1,0,0-2.8H20.583a1.4,1.4,0,1,0,0,2.8Zm1.4-30.758a5.592,5.592,0,1,0,5.592,5.592A5.592,5.592,0,0,0,21.981,9.592Zm0,8.388a2.8,2.8,0,1,1,2.8-2.8A2.8,2.8,0,0,1,21.981,17.981Zm9.786-4.194H44.35a1.4,1.4,0,1,0,0-2.8H31.767a1.4,1.4,0,1,0,0,2.8Zm6.99,2.8h-6.99a1.4,1.4,0,0,0,0,2.8h6.99a1.4,1.4,0,0,0,0-2.8Zm4.893,50.331a4.893,4.893,0,1,0,4.893,4.893,4.893,4.893,0,0,0-4.893-4.893Zm0,6.99a2.1,2.1,0,1,1,2.1-2.1A2.1,2.1,0,0,1,43.651,73.9Zm21.67-5.592H52.738a1.4,1.4,0,0,0,0,2.8H65.321a1.4,1.4,0,0,0,0-2.8ZM59.729,73.9h-6.99a1.4,1.4,0,0,0,0,2.8h6.99a1.4,1.4,0,1,0,0-2.8Z" transform="translate(1.592 0.011)" fill="#737373" stroke="#111" stroke-width="1.5"/>
    </g>
    <path id="Path_35512" data-name="Path 35512" d="M19565.545,20352.971h-.016a.905.905,0,0,1-.842-.588l-4.053-11.646-.26-.736H19531v4.1a.9.9,0,0,1-1.8,0v-4.1h-4.1a.9.9,0,0,1,0-1.8h4.1V20298h-4.1a.9.9,0,0,1,0-1.8h4.1v-4.1a.9.9,0,0,1,1.8,0v4.1h40.193v-4.1a.9.9,0,0,1,1.8,0v4.1h4.1a.9.9,0,0,1,0,1.8h-4.1v29.379l12.383,4.307a.92.92,0,0,1,.6.863.941.941,0,0,1-.607.854l-13.711,4.566-.521.174-4.746,14.232A.906.906,0,0,1,19565.545,20352.971Zm-8.979-29.408,8.947,25.746,4.057-12.164a.92.92,0,0,1,.572-.572l9.1-3.035,3.064-1.016-23.6-8.215Zm-23.369-5.414v0l-2.2.063v19.984h28.744l-2.7-7.771-5.312,5.309a.889.889,0,0,1-1.268,0l-17.006-17a.908.908,0,0,1-.262-.582Zm17.9-15.775-15.729,15.727,14.947,14.947.781.781,4.8-4.807.484-.484-2.135-6.137a.921.921,0,0,1,.219-.924l.006,0a.9.9,0,0,1,.645-.273.864.864,0,0,1,.279.047l6.137,2.135,4.51-4.51.781-.777-14.951-14.947Zm.117-4.375h0l-.068,2.2a.92.92,0,0,1,.588.266l16.994,17a.91.91,0,0,1,.006,1.275l-4.066,4.072-1.242,1.242,7.771,2.7V20298Zm-20.213,0v19.98l2.2.066a.913.913,0,0,1,.262-.582l17-17a.94.94,0,0,1,.588-.266l-.066-2.2H19531Zm19.1,20a.9.9,0,1,1,0-1.8.9.9,0,0,1,0,1.8Z" transform="translate(-39564.395 -38771.098)" fill="#737373"/>
  </g>
</svg>
