<svg xmlns="http://www.w3.org/2000/svg" width="40" height="40" viewBox="0 0 40 40">
  <g id="Group_63148" data-name="Group 63148" transform="translate(-1092 -1889)">
    <rect id="Rectangle_16075" data-name="Rectangle 16075" width="40" height="40" transform="translate(1092 1889)" fill="rgba(17,17,17,0)"/>
    <path id="Union_1" data-name="Union 1" d="M23.813,28a2.157,2.157,0,0,1-2.128-2.125v-.888H7.534v.888A2.161,2.161,0,0,1,5.4,28H2.134A2.159,2.159,0,0,1,0,25.875V22.6a2.163,2.163,0,0,1,2.134-2.131h.882V7.524H2.134A2.158,2.158,0,0,1,0,5.4V2.126A2.159,2.159,0,0,1,2.134,0H5.4A2.16,2.16,0,0,1,7.534,2.126v.882H21.685V2.126A2.156,2.156,0,0,1,23.813,0h3.272a2.155,2.155,0,0,1,2.126,2.126V5.4a2.155,2.155,0,0,1-2.126,2.125H26.2V20.471h.887A2.159,2.159,0,0,1,29.211,22.6v3.273A2.156,2.156,0,0,1,27.084,28Zm-.62-5.4v3.273a.593.593,0,0,0,.62.619h3.272a.589.589,0,0,0,.616-.619V22.6a.589.589,0,0,0-.616-.62H23.813A.593.593,0,0,0,23.192,22.6Zm-21.682,0v3.273a.594.594,0,0,0,.624.619H5.4a.6.6,0,0,0,.633-.619V22.6a.6.6,0,0,0-.633-.62H2.134A.594.594,0,0,0,1.511,22.6Zm3.013-2.131H5.4A2.164,2.164,0,0,1,7.534,22.6v.877H21.685V22.6a2.16,2.16,0,0,1,2.128-2.131h.877V7.524h-.877A2.156,2.156,0,0,1,21.685,5.4v-.89H7.534V5.4A2.16,2.16,0,0,1,5.4,7.524H4.524ZM23.192,2.126V5.4a.593.593,0,0,0,.62.619h3.272A.593.593,0,0,0,27.7,5.4V2.126a.593.593,0,0,0-.62-.619H23.813A.593.593,0,0,0,23.192,2.126Zm-21.682,0V5.4a.594.594,0,0,0,.624.619H5.4A.6.6,0,0,0,6.031,5.4V2.126A.6.6,0,0,0,5.4,1.507H2.134A.594.594,0,0,0,1.511,2.126ZM18.168,20.235l-3.276-1.724-3.275,1.724a.732.732,0,0,1-1.059-.77l.625-3.648L8.532,13.234a.727.727,0,0,1,.4-1.243l3.667-.536,1.637-3.318a.729.729,0,0,1,1.31,0l1.635,3.318,3.667.536a.728.728,0,0,1,.4,1.243L18.6,15.817l.625,3.648a.729.729,0,0,1-.718.852A.75.75,0,0,1,18.168,20.235Zm-2.935-3.192,2.3,1.212L17.1,15.684a.723.723,0,0,1,.207-.644l1.869-1.82-2.584-.378a.731.731,0,0,1-.549-.4l-1.153-2.338-1.153,2.338a.723.723,0,0,1-.547.4l-2.584.378,1.868,1.82a.725.725,0,0,1,.211.644l-.44,2.571,2.306-1.212a.716.716,0,0,1,.681,0Z" transform="translate(1097 1895)" fill="#fff"/>
  </g>
</svg>
