<svg xmlns="http://www.w3.org/2000/svg" width="50.078" height="48.002" viewBox="0 0 50.078 48.002">
  <path id="Branding" d="M19562.822,20248a3.7,3.7,0,0,1-3.645-3.645v-1.523h-24.264v1.523a3.7,3.7,0,0,1-3.66,3.645h-5.594a3.7,3.7,0,0,1-3.658-3.645v-5.609a3.708,3.708,0,0,1,3.658-3.654h1.514v-22.2h-1.514a3.7,3.7,0,0,1-3.658-3.645v-5.609a3.7,3.7,0,0,1,3.658-3.645h5.594a3.7,3.7,0,0,1,3.66,3.645v1.51h24.264v-1.51a3.7,3.7,0,0,1,3.645-3.645h5.609a3.7,3.7,0,0,1,3.648,3.645v5.609a3.7,3.7,0,0,1-3.648,3.645h-1.52v22.2h1.52a3.7,3.7,0,0,1,3.648,3.654v5.609a3.7,3.7,0,0,1-3.648,3.645Zm-1.062-9.254v5.609a1.017,1.017,0,0,0,1.063,1.063h5.609a1.013,1.013,0,0,0,1.057-1.062v-5.609a1.012,1.012,0,0,0-1.057-1.066h-5.609A1.017,1.017,0,0,0,19561.76,20238.748Zm-37.172,0v5.609a1.022,1.022,0,0,0,1.072,1.063h5.594a1.026,1.026,0,0,0,1.084-1.062v-5.609a1.026,1.026,0,0,0-1.084-1.066h-5.594A1.022,1.022,0,0,0,19524.588,20238.748Zm5.168-3.654h1.5a3.71,3.71,0,0,1,3.66,3.654v1.5h24.264v-1.5a3.7,3.7,0,0,1,3.645-3.654h1.508v-22.2h-1.508a3.7,3.7,0,0,1-3.645-3.645v-1.523h-24.264v1.523a3.7,3.7,0,0,1-3.66,3.645h-1.5Zm32-31.449v5.609a1.017,1.017,0,0,0,1.063,1.063h5.609a1.017,1.017,0,0,0,1.063-1.062v-5.609a1.017,1.017,0,0,0-1.062-1.062h-5.609A1.017,1.017,0,0,0,19561.76,20203.645Zm-37.172,0v5.609a1.022,1.022,0,0,0,1.072,1.063h5.594a1.026,1.026,0,0,0,1.084-1.062v-5.609a1.026,1.026,0,0,0-1.084-1.062h-5.594A1.022,1.022,0,0,0,19524.588,20203.645Zm28.559,31.043-5.615-2.957-5.615,2.957a1.251,1.251,0,0,1-1.814-1.32l1.072-6.252-4.547-4.43a1.245,1.245,0,0,1-.316-1.281,1.261,1.261,0,0,1,1.006-.848l6.287-.92,2.8-5.687a1.25,1.25,0,0,1,2.246,0l2.8,5.688,6.285.92a1.261,1.261,0,0,1,1.008.848,1.245,1.245,0,0,1-.316,1.281l-4.547,4.43,1.072,6.252a1.252,1.252,0,0,1-1.814,1.32Zm-5.031-5.473,3.953,2.078-.752-4.406a1.236,1.236,0,0,1,.355-1.1l3.207-3.121-4.432-.65a1.245,1.245,0,0,1-.939-.68l-1.977-4.01-1.977,4.01a1.244,1.244,0,0,1-.941.68l-4.43.65,3.205,3.121a1.251,1.251,0,0,1,.361,1.1l-.756,4.406,3.953-2.078a1.252,1.252,0,0,1,1.168,0Z" transform="translate(-19522.002 -20200)" fill="#ff0a2b"/>
</svg>
