<svg xmlns="http://www.w3.org/2000/svg" width="40" height="40" viewBox="0 0 40 40">
  <g id="Group_63250" data-name="Group 63250" transform="translate(-104 -4183)">
    <rect id="Rectangle_16146" data-name="Rectangle 16146" width="40" height="40" rx="4" transform="translate(104 4183)" fill="rgba(255,10,43,0)"/>
    <path id="Path_35541" data-name="Path 35541" d="M17650.234,4361.3h-3.635a4.183,4.183,0,0,1-4.186-4.173v-4.772c0-1.548-1.18-2.732-3.109-4.537-2.533-2.359-6-5.592-6-11.582a14.75,14.75,0,0,1,4.428-10.532,14.936,14.936,0,0,1,10.631-4.4h.09a.951.951,0,1,1,0,1.9h-.09a13.156,13.156,0,0,0-9.311,3.846,12.869,12.869,0,0,0-3.855,9.188,11,11,0,0,0,1.744,6.13,21.579,21.579,0,0,0,3.539,3.948l.107.108c1.434,1.335,2.912,2.715,3.51,4.441l.133.468h8.369l.166-.462c.518-1.639,1.926-2.965,3.416-4.37l.014-.012.084-.084.039-.036.012-.012a27.478,27.478,0,0,0,2.971-3.119.906.906,0,0,1,.746-.391.954.954,0,0,1,.57.191.979.979,0,0,1,.371.64.964.964,0,0,1-.186.7,29.2,29.2,0,0,1-2.93,3.128l-.029.025-.08.078-.273.263h0l0,.007c-1.854,1.712-3.07,2.948-3.07,4.472v4.772A4.18,4.18,0,0,1,17650.234,4361.3Zm-5.926-8.082h0v3.909a2.28,2.28,0,0,0,2.291,2.266h3.635a2.267,2.267,0,0,0,2.266-2.266v-3.909Zm-.781-10.9a.944.944,0,1,1,0-1.889.944.944,0,0,1,0,1.889Zm17.65-4.1h-1.473a.962.962,0,0,1-.932-.78l-.387-2.144-.02-.115-.307-.134a4.871,4.871,0,0,1-1.107-.673l-.3-.218-2.088.756a1.366,1.366,0,0,1-.361.058.974.974,0,0,1-.807-.474l-.762-1.255a.94.94,0,0,1,.236-1.235l1.717-1.369.08-.063V4330l-.006-.02a.943.943,0,0,1-.02-.236,1.1,1.1,0,0,1,.018-.242l.012-.027,0-.383-1.811-1.261-.006-.007a.92.92,0,0,1-.326-1.2l.723-1.421a.93.93,0,0,1,.84-.524.982.982,0,0,1,.3.058l2.074.64.113.038.264-.217a6.267,6.267,0,0,1,1.2-.717l.357-.167.287-2.188a.993.993,0,0,1,.961-.832h1.537a.991.991,0,0,1,.932.781l.369,2.144.01.108.252.115v.077h.025l0,.013h.049v.025h.061v.032h.193l.014.007v.1h.025l.162.007a7.243,7.243,0,0,1,.664.422l.268.218,2.26-.807.012-.007a.9.9,0,0,1,.3-.051.97.97,0,0,1,.852.493l.717,1.33a.985.985,0,0,1-.258,1.223l-1.785,1.376-.08.063v.365a.168.168,0,0,0,.023.1v.9l1.832,1.336a.909.909,0,0,1,.268,1.19l-.635,1.306a.97.97,0,0,1-.844.512.981.981,0,0,1-.283-.038l-2.072-.608-.115-.031-.262.23a5.074,5.074,0,0,1-1.342.825l-.316.159-.359,2.2A.978.978,0,0,1,17661.178,4338.219Zm-2.547-5.016a.28.28,0,0,0,.035.021.32.32,0,0,1,.059.036l.025.007.023.006a.2.2,0,0,1,.068.032l.068.028c.029.015.059.026.082.036l.018.008.018.007.014,0a.472.472,0,0,0,.1.037.338.338,0,0,0,.059.02.184.184,0,0,0,.057.014s.006,0,.008.006a.023.023,0,0,1,.012.007l.01,0a.8.8,0,0,0,.133.039,4.475,4.475,0,0,0,1.037.135,3.094,3.094,0,0,0,.918-.129.9.9,0,0,0,.143-.024l.059-.013a.086.086,0,0,1,.031-.011l.008,0,.016-.006.029-.006.045-.021h.043l.1-.051.014-.006.018-.014h.053l.178-.09h.168v-.083l.045-.02.025-.025.039-.019.055-.039.043-.02.016-.02a.017.017,0,0,1,.014-.006l.006-.006h.186v-.115l.072-.051.02-.02a.031.031,0,0,1,.014-.01l.012-.01c.016-.012.033-.024.049-.038l.031-.013a.318.318,0,0,0,.08-.063l.082-.045v-.032l.012-.009c.01-.011.021-.021.033-.036h.113v-.115l.01-.006.01-.012a.414.414,0,0,0,.078-.1l.025-.013.031-.033a4.023,4.023,0,0,0,.871-1.727l.039-.039v-.115a.254.254,0,0,0,.02-.1v-.019a.026.026,0,0,1,0-.018.022.022,0,0,0,0-.016v-.014a.481.481,0,0,0,.016-.127v-.812a.335.335,0,0,0-.023-.135.538.538,0,0,0-.02-.134v-.058l-.035-.064a.151.151,0,0,0,0-.03v-.008a.016.016,0,0,1-.006-.013v-.025l-.01-.026a3.9,3.9,0,0,0-.98-1.785.111.111,0,0,0-.025-.021s-.006,0-.006-.006-.006-.009-.012-.013l-.006-.075-.139-.071-.039-.025h0l-.006,0s-.006,0-.006-.006,0,0-.006-.008a.194.194,0,0,1-.021-.02l-.018-.015a.385.385,0,0,0-.092-.075l-.055-.058-.025-.013-.01-.011h0c-.008-.006-.01-.007-.01-.01v-.108h-.143l-.039-.02-.012-.008-.012-.007-.02-.011-.008-.006v-.1h-.178l-.045-.039-.07-.019c0-.012-.021-.025-.045-.032a.406.406,0,0,0-.061-.022l-.012,0a.633.633,0,0,0-.055-.033l-.025-.012h-.014a.487.487,0,0,0-.168-.07.219.219,0,0,0-.045-.019.627.627,0,0,0-.059-.027l-.018-.006a.208.208,0,0,0-.066-.028l-.008,0a.689.689,0,0,0-.168-.046.044.044,0,0,0-.025-.006,3.667,3.667,0,0,0-1.023-.146,4.06,4.06,0,0,0-1.023.134.266.266,0,0,0-.07.021l-.014.006h-.193v.044h-.162v.083c-.055.025-.131.054-.2.077l-.047.02-.031.025a.487.487,0,0,1-.062.025.215.215,0,0,0-.029.014.12.12,0,0,0-.035.019l-.018.006a1.3,1.3,0,0,0-.2.125l-.008.007-.016.01a.486.486,0,0,1-.043.031l-.025.026-.3.179v.025s-.008.007-.01.01l-.01.006-.008.008a.114.114,0,0,0-.016.015l-.012.012a.209.209,0,0,1-.053.04l-.057.039-.059.024v.045h-.137v.02h-.025v.141a3.947,3.947,0,0,0-.959,1.785l-.006.02h-.025v.236a.059.059,0,0,1-.008.032.657.657,0,0,0-.012.115v.032a.588.588,0,0,0-.025.205v.5a.331.331,0,0,0,.025.141v.078a.292.292,0,0,0,.02.114v.121l.025.02v.147l.031.051a3.817,3.817,0,0,0,.953,1.728.335.335,0,0,0,.09.1l.006.05.078.045.078.051.025.02v.044l.123.059a.034.034,0,0,0,.01.016c.01.006.014.008.014.01l.031.031.014.007.07.1h.051v.1h.166a.076.076,0,0,1,.025.013l.01,0h0l.008,0,0,.1h.043v.026Zm-18.008,3.967a.951.951,0,0,1-.932-.947,8.615,8.615,0,0,1,6.045-8.254,1.2,1.2,0,0,1,.3-.046.961.961,0,0,1,.918.666.973.973,0,0,1-.65,1.2,6.719,6.719,0,0,0-4.73,6.431A.953.953,0,0,1,17640.623,4337.17Z" transform="translate(-17527.305 -138.3)" fill="#ff0a2b"/>
  </g>
</svg>
