<svg xmlns="http://www.w3.org/2000/svg" xmlns:xlink="http://www.w3.org/1999/xlink" width="64" height="64" viewBox="0 0 64 64">
  <defs>
    <linearGradient id="linear-gradient" x2="0.801" y2="1.269" gradientUnits="objectBoundingBox">
      <stop offset="0" stop-color="#3d3e42"/>
      <stop offset="1" stop-color="#191919"/>
    </linearGradient>
  </defs>
  <g id="Creative" transform="translate(-143 -3387)">
    <rect id="Rectangle_13021" data-name="Rectangle 13021" width="64" height="64" rx="18" transform="translate(143 3387)" fill="url(#linear-gradient)"/>
    <path id="draw_image_regular_icon_203631" d="M3,8.578A5.578,5.578,0,0,1,8.582,3H26.433a5.578,5.578,0,0,1,5.578,5.578V16.4a6.394,6.394,0,0,0-2.231.517V8.578a3.347,3.347,0,0,0-3.347-3.347H8.582A3.347,3.347,0,0,0,5.235,8.578V26.352l9.595-7.2a4.463,4.463,0,0,1,5.355,0l3.84,2.88-1.594,1.594-3.585-2.688a2.232,2.232,0,0,0-2.678,0L5.887,28.652a5.32,5.32,0,0,1-.7-.468A2.823,2.823,0,0,0,3,27.619Zm17.851,4.463a1.116,1.116,0,1,1,1.116,1.116A1.116,1.116,0,0,1,20.854,13.041ZM21.97,9.694a3.347,3.347,0,1,0,3.347,3.347A3.347,3.347,0,0,0,21.97,9.694Zm1.659,24.48a2.336,2.336,0,0,1-.25.048c-3.691,1.136-7.859.935-9.065-.006a2.334,2.334,0,0,1-.706-2.777.268.268,0,0,0-.248-.38,10.619,10.619,0,0,0-2.9.954,7.683,7.683,0,0,1-4.406.917,3.728,3.728,0,0,1-3.012-2.5c-.2-.49.363-.812.782-.487a3.793,3.793,0,0,0,2.789,1.063,14.086,14.086,0,0,0,2.1-.774c1.974-.831,4.469-1.881,6.387-1.109a2.109,2.109,0,0,1,.9,2.967.274.274,0,0,0,.146.4,12.8,12.8,0,0,0,4.748-.035,2.22,2.22,0,0,1,.025-.985l.834-3.335a3.346,3.346,0,0,1,.88-1.555l6.74-6.74a4.159,4.159,0,1,1,5.882,5.882l-6.74,6.74a3.347,3.347,0,0,1-1.555.881Zm-.541-2.165,3.335-.834a1.113,1.113,0,0,0,.518-.293l6.74-6.74a1.927,1.927,0,0,0-2.726-2.726l-6.74,6.74a1.116,1.116,0,0,0-.293.518Z" transform="translate(157.002 3400.441)" fill="#fff"/>
  </g>
</svg>
