<svg xmlns="http://www.w3.org/2000/svg" width="64" height="64" viewBox="0 0 64 64">
  <path id="Path_35668" data-name="Path 35668" d="M13925.2,4385.2h-64v-5.077a12.392,12.392,0,0,1,7.985-11.523l.19-.074-.173-.105a8.177,8.177,0,1,1,12.235-8.985l.021.078h1.487v-8l-13.368-13.364a3.863,3.863,0,0,1,2.735-6.594,4.022,4.022,0,0,1,2.738,1.069l6.905,6.376.161-.115a12.327,12.327,0,1,1,21.529,1.143l.15.13c.286-.243.594-.509.888-.8l6.671-6.668a3.833,3.833,0,0,1,2.717-1.132h.015a3.862,3.862,0,0,1,2.729,6.594l-13.362,13.364v8h1.485l.018-.078a8.178,8.178,0,1,1,12.235,8.985l-.172.105.189.074a12.392,12.392,0,0,1,7.989,11.523v5.076Zm-12.326-15.534a10.326,10.326,0,0,0-4.95,1.273,10.535,10.535,0,0,0-3.761,3.463l-.035.046.027.052a12.358,12.358,0,0,1,1.371,5.623v3.2h17.8v-3.2A10.468,10.468,0,0,0,13912.874,4369.667Zm-19.674,0a10.47,10.47,0,0,0-10.458,10.458v3.2h20.912v-3.2A10.468,10.468,0,0,0,13893.2,4369.667Zm-19.678,0a10.467,10.467,0,0,0-10.453,10.458v3.2h17.8v-3.2a12.18,12.18,0,0,1,1.367-5.623l.028-.052-.031-.046a10.59,10.59,0,0,0-3.766-3.463A10.324,10.324,0,0,0,13873.522,4369.667Zm27.86-8.284v.1a8.152,8.152,0,0,1-3.863,6.938l-.172.105.189.074a12.357,12.357,0,0,1,5.42,4.017l.076.1.082-.1a12.385,12.385,0,0,1,5.437-4.01l.189-.071-.172-.108a8.138,8.138,0,0,1-3.881-6.945v-.1Zm-19.675,0v.1a8.14,8.14,0,0,1-3.88,6.945l-.173.108.19.071a12.427,12.427,0,0,1,5.44,4.01l.076.1.082-.1a12.341,12.341,0,0,1,5.416-4.017l.193-.074-.176-.105a8.149,8.149,0,0,1-3.863-6.937v-.1Zm31.166-6.211a6.313,6.313,0,1,0,6.314,6.313A6.32,6.32,0,0,0,13912.874,4355.171Zm-19.674,0a6.313,6.313,0,1,0,6.313,6.313A6.32,6.32,0,0,0,13893.2,4355.171Zm-19.678,0a6.313,6.313,0,1,0,6.313,6.313A6.318,6.318,0,0,0,13873.522,4355.171Zm18.742-1.872h1.872v.059l.084.014a8.144,8.144,0,0,1,6.892,6.065l.021.078h.449v-8.772l13.913-13.917a1.994,1.994,0,0,0-2.821-2.815l-6.672,6.671a17.476,17.476,0,0,1-8.684,4.75l-.08.018v1.539a4.046,4.046,0,0,1-4.757,3.979,4.183,4.183,0,0,1-3.324-4.158v-1.518l-.077-.021a17.664,17.664,0,0,1-7.533-4.1l-7.766-7.168a2.145,2.145,0,0,0-1.469-.575,2,2,0,0,0-1.413,3.4l13.914,13.914v8.772h.453l.018-.078a8.152,8.152,0,0,1,6.892-6.065l.088-.014v-.058Zm-1.238-7.643v1.153a2.3,2.3,0,0,0,1.774,2.313,2.139,2.139,0,0,0,.4.035,2.172,2.172,0,0,0,2.173-2.17v-1.23l-.109.007c-.249.027-.516.035-.75.041h-.027l-.126,0-.127.005-.094,0v.032h-.937a12.487,12.487,0,0,1-1.493-.1c-.084-.007-.17-.021-.254-.034l-.021,0-.083-.013-.141-.021-.067-.01Zm2.174-22.587a10.452,10.452,0,0,0-1.244,20.831c.48.046.952.07,1.4.073a10.453,10.453,0,0,0-.154-20.9Zm28.891,27.958h-1.869v-1.869h1.869v1.868Zm-4.141,0h-1.872v-1.869h1.872v1.868Zm-4.144,0h-1.868v-1.869h1.868v1.868Zm-39.348,0h-1.869v-1.869h1.869v1.868Zm-4.141,0h-1.872v-1.869h1.872v1.868Zm-4.144,0h-1.868v-1.869h1.868v1.868Zm27.025-11.39h-.018a6.114,6.114,0,0,1-3.572-1.161l1.125-1.5a4.2,4.2,0,0,0,2.465.789,4.242,4.242,0,1,0-3.979-5.669l-.062.179,2.683-.673.451,1.817-4.771,1.195-2.363-4.726,1.673-.834.883,1.767.092-.171a6.111,6.111,0,1,1,5.395,8.985Z" transform="translate(-13861.2 -4321.201)" fill="#fff"/>
</svg>
