<svg xmlns="http://www.w3.org/2000/svg" width="40.006" height="40" viewBox="0 0 40.006 40">
  <g id="Group_63251" data-name="Group 63251" transform="translate(-104 -4357)">
    <rect id="Rectangle_16146" data-name="Rectangle 16146" width="40" height="40" rx="4" transform="translate(104 4357)" fill="rgba(255,10,43,0)"/>
    <path id="Path_35542" data-name="Path 35542" d="M17664.545,4361.3a1.277,1.277,0,0,1-1.182-.795l-4.99-12.492a1.3,1.3,0,0,1-.082-.459,1.263,1.263,0,0,1,1.234-1.264h.039a1.369,1.369,0,0,1,.461.078l12.482,4.99a1.271,1.271,0,0,1,.1,2.316l-4.555,2.289-.055.027-2.32,4.61A1.288,1.288,0,0,1,17664.545,4361.3Zm-2.723-11.479,2.7,6.746.15.392,1.244-2.479a1.267,1.267,0,0,1,.561-.565l2.48-1.247-6.732-2.686Zm-21.01,11.479h-4.168a3.392,3.392,0,0,1-3.344-3.346v-4.167a3.393,3.393,0,0,1,3.344-3.346h.826v-18.282h-.826a3.393,3.393,0,0,1-3.344-3.346v-4.167a3.393,3.393,0,0,1,3.344-3.346h4.168a3.4,3.4,0,0,1,3.354,3.346v.817h18.275v-.817a3.393,3.393,0,0,1,3.344-3.346h4.168a3.392,3.392,0,0,1,3.346,3.346v4.167a3.392,3.392,0,0,1-3.346,3.346h-.814v11.223a1.265,1.265,0,0,1-2.529,0v-11.223h-.824a3.393,3.393,0,0,1-3.344-3.346v-.822h-18.275v.822a3.4,3.4,0,0,1-3.354,3.346H17640v18.282h.814a3.4,3.4,0,0,1,3.354,3.346v.816h11.219a1.267,1.267,0,0,1,0,2.535h-11.219v.816A3.4,3.4,0,0,1,17640.813,4361.3Zm-4.977-8.331h0v5.8h5.8v-5.8h-5.8Zm29.139-29.142h0v5.8h5.793v-5.8h-5.793Zm-29.139,0h0v5.8h5.8v-5.8h-5.8Z" transform="translate(-17529.301 35.7)" fill="#ff0a2b"/>
  </g>
</svg>
