<svg xmlns="http://www.w3.org/2000/svg" width="40.158" height="40" viewBox="0 0 40.158 40">
  <g id="Group_63253" data-name="Group 63253" transform="translate(-103.998 -4705)">
    <rect id="Rectangle_16153" data-name="Rectangle 16153" width="40" height="40" rx="4" transform="translate(104 4705)" fill="rgba(255,10,43,0)"/>
    <path id="Path_35544" data-name="Path 35544" d="M17670.082,4361.3h-33.41a3.377,3.377,0,0,1-3.373-3.374v-33.253a3.377,3.377,0,0,1,3.373-3.373h33.41a3.378,3.378,0,0,1,3.375,3.373v33.253A3.378,3.378,0,0,1,17670.082,4361.3Zm-34.789-28.5h0v25.124a1.381,1.381,0,0,0,1.379,1.382h33.41a1.382,1.382,0,0,0,1.379-1.382V4332.8h-36.168Zm1.379-9.5a1.375,1.375,0,0,0-1.379,1.371v6.126h36.168v-6.126a1.377,1.377,0,0,0-1.379-1.371Zm13.137,32.067a.943.943,0,0,1-.387-.083,1.011,1.011,0,0,1-.543-.56,1.025,1.025,0,0,1,.018-.75l7.127-16.626a.99.99,0,0,1,.918-.609,1.009,1.009,0,0,1,.924.628.972.972,0,0,1-.008.765l-7.127,16.626A1,1,0,0,1,17649.809,4355.368Zm-3.551-3.563h-.008a.985.985,0,0,1-.621-.224l-5.939-4.75a1,1,0,0,1,0-1.555l5.939-4.755a.968.968,0,0,1,.621-.219,1,1,0,0,1,.783.37,1.019,1.019,0,0,1-.154,1.41l-4.965,3.966,4.965,3.978a1,1,0,0,1,.367.668,1.006,1.006,0,0,1-.988,1.111Zm14.248-.006a.968.968,0,0,1-.777-.375.983.983,0,0,1-.217-.732.97.97,0,0,1,.367-.667l4.961-3.978-4.961-3.966a1.008,1.008,0,0,1-.15-1.4.992.992,0,0,1,1.4-.157l5.941,4.755a.994.994,0,0,1,0,1.555l-5.941,4.75A.975.975,0,0,1,17660.506,4351.8Zm7.121-23.748h-7.121a1,1,0,0,1,0-2h7.121a1,1,0,1,1,0,2Zm-19,0a1,1,0,1,1,.994-1A1,1,0,0,1,17648.629,4328.051Zm-4.754,0a1,1,0,1,1,1-1A1,1,0,0,1,17643.875,4328.051Zm-4.746,0a1,1,0,1,1,1-1A1,1,0,0,1,17639.129,4328.051Z" transform="translate(-17529.301 383.701)" fill="#ff0a2b"/>
  </g>
</svg>
