<svg xmlns="http://www.w3.org/2000/svg" width="342.5" height="318.613" viewBox="0 0 342.5 318.613">
  <g id="Group_81" data-name="Group 81" transform="translate(-0.25 0.25)">
    <circle id="Ellipse_13555" data-name="Ellipse 13555" cx="134.023" cy="134.023" r="134.023" transform="translate(73.954 0.5)" fill="none" stroke="#ff0a2b" stroke-linecap="round" stroke-linejoin="round" stroke-width="1.5" stroke-dasharray="1 6"/>
    <path id="Path_35479" data-name="Path 35479" d="M150,485.458V220H370.391V485.458Z" transform="translate(-113.935 -167.844)" fill="none" stroke="#737373" stroke-width="1.5"/>
    <path id="Path_35480" data-name="Path 35480" d="M142.625,1114.063A21.062,21.062,0,1,1,121.562,1093,21.062,21.062,0,0,1,142.625,1114.063Z" transform="translate(-76.084 -835.397)" fill="#111" stroke="#737373" stroke-width="1.5"/>
    <path id="Path_35481" data-name="Path 35481" d="M1,540.094V507.5H50.067v32.594Z" transform="translate(0 -387.685)" fill="none" stroke="#737373" stroke-width="1.5"/>
    <path id="Path_35482" data-name="Path 35482" d="M1,507.5v32.594H50.067V507.5M1,507.5H50.067M1,507.5l24.592,20.239L50.067,507.5" transform="translate(0 -387.685)" fill="#111" stroke="#737373" stroke-width="1.5"/>
    <rect id="Rectangle_16128" data-name="Rectangle 16128" width="81.896" height="57.422" transform="translate(209.86 198.063)" fill="#111" stroke="#737373" stroke-width="1.5"/>
    <path id="Path_35483" data-name="Path 35483" d="M138.571,1173.5a4.17,4.17,0,0,1-2.33-.635,3.4,3.4,0,0,1-1.341-1.779l.847-.494a2.632,2.632,0,0,0,.988,1.44,3.135,3.135,0,0,0,1.85.508,2.694,2.694,0,0,0,1.709-.48,1.58,1.58,0,0,0,.621-1.3,1.338,1.338,0,0,0-.565-1.172,7.507,7.507,0,0,0-1.864-.819,10.972,10.972,0,0,1-2.033-.819,2.16,2.16,0,0,1-1.13-1.963,2.422,2.422,0,0,1,.875-1.977,3.247,3.247,0,0,1,2.16-.734,3.351,3.351,0,0,1,2.005.607,3.6,3.6,0,0,1,1.257,1.525l-.833.466a2.436,2.436,0,0,0-2.429-1.638,2.3,2.3,0,0,0-1.483.452,1.52,1.52,0,0,0-.565,1.257,1.27,1.27,0,0,0,.508,1.1,6.431,6.431,0,0,0,1.68.748q.537.183.762.268a7.067,7.067,0,0,1,.678.254,3.453,3.453,0,0,1,.664.311,4.633,4.633,0,0,1,.508.367,1.43,1.43,0,0,1,.438.466,2.263,2.263,0,0,1,.24.565,2.134,2.134,0,0,1,.113.706,2.5,2.5,0,0,1-.918,2.019A3.7,3.7,0,0,1,138.571,1173.5Zm5.949-1.1h4.8v.932h-5.789v-9.884h5.719v.932h-4.73v3.5H148.9v.932H144.52Z" transform="translate(-102.389 -889.138)" fill="#fff"/>
    <path id="Path_35484" data-name="Path 35484" d="M365,985.471V981H466.7c.3,1.082.806,1.455,2.322,1.7v2.772Z" transform="translate(-278.338 -749.754)" fill="#515050"/>
    <path id="Path_35485" data-name="Path 35485" d="M427,768.182C454.276,758.168,468.29,751.3,489.128,735" transform="translate(-325.747 -561.647)" fill="#111" stroke="#ff0a2b" stroke-width="1.5"/>
    <path id="Path_35486" data-name="Path 35486" d="M365,650h2.772c.044,1.448.567,1.76,1.61,2.211l.089,80.157H365Z" transform="translate(-278.338 -496.65)" fill="#515050"/>
    <circle id="Ellipse_13556" data-name="Ellipse 13556" cx="2.236" cy="2.236" r="2.236" transform="translate(88.78 229.01)" fill="#111" stroke="#b2b2b2" stroke-width="1.5"/>
    <circle id="Ellipse_13557" data-name="Ellipse 13557" cx="2.236" cy="2.236" r="2.236" transform="translate(88.78 151.114)" fill="#111" stroke="#b2b2b2" stroke-width="1.5"/>
    <circle id="Ellipse_13558" data-name="Ellipse 13558" cx="2.236" cy="2.236" r="2.236" transform="translate(188.326 229.01)" fill="#111" stroke="#b2b2b2" stroke-width="1.5"/>
    <path id="Path_35487" data-name="Path 35487" d="M383.5,659.5v73.424" transform="translate(-292.484 -503.914)" fill="#111" stroke="#b2b2b2" stroke-width="1.5"/>
    <path id="Path_35488" data-name="Path 35488" d="M486.811,981H391.5" transform="translate(-298.602 -749.754)" fill="#111" stroke="#b2b2b2" stroke-width="1.5"/>
    <path id="Path_35489" data-name="Path 35489" d="M49.474,1242,27,1263.886" transform="translate(-19.881 -949.332)" fill="#111" stroke="#737373" stroke-width="1.5"/>
    <circle id="Ellipse_13559" data-name="Ellipse 13559" cx="3.765" cy="3.765" r="3.765" transform="translate(280.46 203.241)" fill="#ff0a2b"/>
    <path id="Path_35490" data-name="Path 35490" d="M1045.032,931.649,1029.5,922v18.827Z" transform="translate(-786.458 -704.639)" fill="none" stroke="#737373" stroke-width="1.5"/>
    <circle id="Ellipse_13560" data-name="Ellipse 13560" cx="9.884" cy="9.884" r="9.884" transform="translate(161.381 157.821)" fill="#ff0a2b"/>
    <circle id="Ellipse_13561" data-name="Ellipse 13561" cx="5.06" cy="5.06" r="5.06" transform="translate(47.714 274.077)" fill="#ff0a2b"/>
    <circle id="Ellipse_13562" data-name="Ellipse 13562" cx="3.412" cy="3.412" r="3.412" transform="translate(22.062 125.58)" fill="#ff0a2b"/>
    <rect id="Rectangle_16129" data-name="Rectangle 16129" width="9.649" height="45.89" transform="translate(166.558 185.12)" fill="#111" stroke="#b2b2b2" stroke-width="1.5"/>
    <path id="Path_35491" data-name="Path 35491" d="M682.5,790.766,687.442,783v46.361H682.5Z" transform="translate(-521.119 -598.351)" fill="#515050"/>
    <path id="Path_35492" data-name="Path 35492" d="M588.5,827.766,593.442,820v37.654H588.5Z" transform="translate(-449.241 -626.643)" fill="#515050"/>
    <path id="Path_35493" data-name="Path 35493" d="M494.5,861.766,499.442,854v29.652H494.5Z" transform="translate(-377.362 -652.642)" fill="#515050"/>
    <path id="Path_35494" data-name="Path 35494" d="M400.5,915.766,405.442,908v16.944H400.5Z" transform="translate(-305.484 -693.934)" fill="#515050"/>
    <rect id="Rectangle_16130" data-name="Rectangle 16130" width="9.649" height="37.183" transform="translate(144.437 193.827)" fill="#111" stroke="#b2b2b2" stroke-width="1.5"/>
    <rect id="Rectangle_16131" data-name="Rectangle 16131" width="9.649" height="29.182" transform="translate(122.315 201.829)" fill="#111" stroke="#b2b2b2" stroke-width="1.5"/>
    <rect id="Rectangle_16132" data-name="Rectangle 16132" width="9.649" height="16.473" transform="translate(100.194 214.537)" fill="#111" stroke="#b2b2b2" stroke-width="1.5"/>
    <circle id="Ellipse_13579" data-name="Ellipse 13579" cx="12" cy="12" r="12" transform="translate(65.012 95.457)" fill="#111" stroke="#9e9e9e" stroke-linecap="round" stroke-linejoin="round" stroke-width="1.5" stroke-dasharray="1 4"/>
    <circle id="Ellipse_13580" data-name="Ellipse 13580" cx="12" cy="12" r="12" transform="translate(157.262 81.338)" fill="#111" stroke="#9e9e9e" stroke-linecap="round" stroke-linejoin="round" stroke-width="1.5" stroke-dasharray="1 4"/>
    <circle id="Ellipse_13581" data-name="Ellipse 13581" cx="12" cy="12" r="12" transform="translate(201.035 144.406)" fill="#111" stroke="#9e9e9e" stroke-linecap="round" stroke-linejoin="round" stroke-width="1.5" stroke-dasharray="1 4"/>
    <circle id="Ellipse_13582" data-name="Ellipse 13582" cx="12" cy="12" r="12" transform="translate(65.246 242.07)" fill="#111" stroke="#9e9e9e" stroke-linecap="round" stroke-linejoin="round" stroke-width="1.5" stroke-dasharray="1 4"/>
    <circle id="Ellipse_13583" data-name="Ellipse 13583" cx="12" cy="12" r="12" transform="translate(129.492 275.018)" fill="#111" stroke="#9e9e9e" stroke-linecap="round" stroke-linejoin="round" stroke-width="1.5" stroke-dasharray="1 4"/>
    <path id="Icon_awesome-twitter" data-name="Icon awesome-twitter" d="M12.877,6.286c.009.127.009.255.009.382a8.311,8.311,0,0,1-8.369,8.369A8.312,8.312,0,0,1,0,13.717a6.085,6.085,0,0,0,.71.036A5.891,5.891,0,0,0,4.362,12.5a2.947,2.947,0,0,1-2.75-2.04,3.709,3.709,0,0,0,.556.046,3.111,3.111,0,0,0,.774-.1A2.942,2.942,0,0,1,.583,7.515V7.479a2.962,2.962,0,0,0,1.33.373A2.946,2.946,0,0,1,1,3.918,8.361,8.361,0,0,0,7.067,7a3.32,3.32,0,0,1-.073-.674A2.944,2.944,0,0,1,12.084,4.31a5.791,5.791,0,0,0,1.867-.71A2.933,2.933,0,0,1,12.658,5.22a5.9,5.9,0,0,0,1.694-.455,6.323,6.323,0,0,1-1.475,1.521Z" transform="translate(69.835 98.248)" fill="#9e9e9e"/>
    <path id="Icon_awesome-facebook-f" data-name="Icon awesome-facebook-f" d="M8.616,7.875l.389-2.534H6.574V3.7A1.267,1.267,0,0,1,8,2.328H9.108V.171A13.478,13.478,0,0,0,7.146,0,3.093,3.093,0,0,0,3.835,3.41V5.341H1.609V7.875H3.835V14H6.574V7.875Z" transform="translate(164.212 86.047)" fill="#9e9e9e"/>
    <path id="Icon_awesome-instagram" data-name="Icon awesome-instagram" d="M6.666,5.487a3.42,3.42,0,1,0,3.42,3.42A3.414,3.414,0,0,0,6.666,5.487Zm0,5.643A2.223,2.223,0,1,1,8.89,8.906,2.227,2.227,0,0,1,6.666,11.13Zm4.357-5.783a.8.8,0,1,1-.8-.8A.8.8,0,0,1,11.023,5.347Zm2.265.81a3.947,3.947,0,0,0-1.077-2.795A3.973,3.973,0,0,0,9.416,2.285c-1.1-.062-4.4-.062-5.5,0A3.967,3.967,0,0,0,1.119,3.359,3.96,3.96,0,0,0,.042,6.154c-.062,1.1-.062,4.4,0,5.5a3.947,3.947,0,0,0,1.077,2.795,3.978,3.978,0,0,0,2.795,1.077c1.1.062,4.4.062,5.5,0a3.947,3.947,0,0,0,2.795-1.077,3.973,3.973,0,0,0,1.077-2.795c.062-1.1.062-4.4,0-5.5Zm-1.423,6.681A2.251,2.251,0,0,1,10.6,14.106a14.7,14.7,0,0,1-3.931.268,14.814,14.814,0,0,1-3.931-.268,2.251,2.251,0,0,1-1.268-1.268A14.7,14.7,0,0,1,1.2,8.906a14.814,14.814,0,0,1,.268-3.931A2.251,2.251,0,0,1,2.735,3.707a14.7,14.7,0,0,1,3.931-.268,14.814,14.814,0,0,1,3.931.268,2.251,2.251,0,0,1,1.268,1.268,14.7,14.7,0,0,1,.268,3.931A14.69,14.69,0,0,1,11.866,12.838Z" transform="translate(206.371 147.5)" fill="#9e9e9e"/>
    <path id="Icon_awesome-thumbs-up" data-name="Icon awesome-thumbs-up" d="M2.541,5.472H.586A.586.586,0,0,0,0,6.058v5.863a.586.586,0,0,0,.586.586H2.541a.586.586,0,0,0,.586-.586V6.058A.586.586,0,0,0,2.541,5.472Zm-.977,6.058a.586.586,0,1,1,.586-.586A.586.586,0,0,1,1.563,11.531ZM9.381,1.99c0,1.036-.634,1.617-.813,2.31h2.485a1.46,1.46,0,0,1,1.455,1.419,1.769,1.769,0,0,1-.475,1.2l0,0A2.041,2.041,0,0,1,11.8,8.865a1.932,1.932,0,0,1-.4,1.826,1.3,1.3,0,0,1-.15,1.09c-.5.716-1.734.726-2.779.726H8.4a7.013,7.013,0,0,1-2.921-.775,3.845,3.845,0,0,0-1.286-.4.293.293,0,0,1-.288-.293V5.822A.293.293,0,0,1,4,5.614c.968-.956,1.384-1.969,2.177-2.763a2.959,2.959,0,0,0,.62-1.439C6.9.96,7.129,0,7.622,0,8.208,0,9.381.2,9.381,1.99Z" transform="translate(70.992 246.816)" fill="#9e9e9e"/>
    <path id="Icon_awesome-heart" data-name="Icon awesome-heart" d="M10.834,2.966a3.2,3.2,0,0,0-4.373.319L6,3.76l-.462-.476a3.2,3.2,0,0,0-4.373-.319A3.365,3.365,0,0,0,.932,7.838l4.535,4.683a.735.735,0,0,0,1.062,0l4.535-4.683a3.363,3.363,0,0,0-.23-4.873Z" transform="translate(135.29 280.916)" fill="#9e9e9e"/>
  </g>
</svg>
