<svg xmlns="http://www.w3.org/2000/svg" width="62.171" height="63.087" viewBox="0 0 62.171 63.087">
  <g id="Group_63186" data-name="Group 63186" transform="translate(-2.914 -3.014)">
    <path id="Path_35405" data-name="Path 35405" d="M3,70.1H65.171v1.829H3Z" transform="translate(-0.086 -5.829)" fill="#ff0a2b"/>
    <path id="Path_35406" data-name="Path 35406" d="M48.763,67.043H28.914A.914.914,0,0,1,28,66.129v-38.4h1.829V65.214H48.034C51.885,47.944,49.8,33.806,42,24.289A30.59,30.59,0,0,0,29.829,15.3v8.769H28V14.014a.914.914,0,0,1,1.157-.881c.308.085,30.72,9.009,20.5,53.2A.914.914,0,0,1,48.763,67.043Z" transform="translate(-2.229 -0.943)" fill="#ff0a2b"/>
    <path id="Path_35407" data-name="Path 35407" d="M45.053,61.614H33.486a.914.914,0,0,1-.914-.914V20.486A.914.914,0,0,1,34,19.733c6.511,4.467,16.72,15.752,11.949,41.136a.914.914,0,0,1-.9.745ZM34.4,59.786h9.891c3.926-22.034-3.884-32.7-9.891-37.486ZM28,3.1h1.829V13.157H28Z" transform="translate(-2.229 -0.086)" fill="#ff0a2b"/>
    <path id="Path_35408" data-name="Path 35408" d="M32.8,29.412h7.68v1.829H32.8Zm0,8.046H44.027v1.829H32.8Zm0,8.046H45.445v1.829H32.8Zm0,8.037H45.435v1.829H32.8ZM29.143,29.586H20.914A.914.914,0,0,1,20,28.671V25.014a.914.914,0,0,1,.914-.914h8.229a.914.914,0,0,1,.914.914v3.657A.914.914,0,0,1,29.143,29.586Zm-7.314-1.829h6.4V25.929h-6.4Z" transform="translate(-1.543 -1.886)" fill="#ff0a2b"/>
    <path id="Path_35409" data-name="Path 35409" d="M26.686,66.1H23.029a.914.914,0,0,1-.914-.914v-38.4h1.829V64.271h1.829V26.786H27.6v38.4A.914.914,0,0,1,26.686,66.1ZM27.6,23.129H25.771V19.49H23.943v3.639H22.114V18.575a.914.914,0,0,1,.914-.914h3.657a.914.914,0,0,1,.914.914Z" fill="#ff0a2b"/>
  </g>
</svg>
