<svg xmlns="http://www.w3.org/2000/svg" width="40" height="40" viewBox="0 0 40 40">
  <g id="Group_63252" data-name="Group 63252" transform="translate(-104 -4531)">
    <rect id="Rectangle_16146" data-name="Rectangle 16146" width="40" height="40" rx="4" transform="translate(104 4531)" fill="rgba(255,10,43,0)"/>
    <path id="Path_35543" data-name="Path 35543" d="M17634.824,4361.5a1.315,1.315,0,0,1-.936-.383,1.366,1.366,0,0,1-.389-.94,1.316,1.316,0,0,1,.385-.935l11.934-11.513a1.307,1.307,0,0,1,.928-.383,1.289,1.289,0,0,1,.936.383,1.337,1.337,0,0,1,0,1.875l-11.922,11.5-.008.007A1.278,1.278,0,0,1,17634.824,4361.5Zm21.123-8.512-.053,0h-.016c-.018,0-.035,0-.055,0h-.01l-.018,0-.029-.006a1.074,1.074,0,0,1-.869-.748l-2.836-9.12-.051-.158-9.266-2.888a1.087,1.087,0,0,1-.762-.873,1.119,1.119,0,0,1,.451-1.07l7.791-5.517.137-.1-.119-9.706a1.111,1.111,0,0,1,.59-.991,1.153,1.153,0,0,1,.5-.123,1.07,1.07,0,0,1,.66.225l7.639,5.709.137.1,9.2-3.125a1.011,1.011,0,0,1,.346-.056,1.109,1.109,0,0,1,.779.32,1.075,1.075,0,0,1,.264,1.126l-3.062,9.041-.055.158,5.8,7.78a1.1,1.1,0,0,1,.1,1.16,1.083,1.083,0,0,1-.979.6l-9.555-.118-.168-.006-5.6,7.933A1.093,1.093,0,0,1,17655.947,4352.989Zm-3.486-28h0l.1,8.068a1.1,1.1,0,0,1-.461.906l-6.064,4.284-.523.371,7.709,2.393a1.1,1.1,0,0,1,.715.727l2.2,7.094.191.613,4.65-6.592a1.056,1.056,0,0,1,.879-.462h.039l7.408.1.646.006-4.818-6.475a1.091,1.091,0,0,1-.164-1l2.389-7.026.209-.608-7.643,2.585a1.065,1.065,0,0,1-.354.057h-.051a1.037,1.037,0,0,1-.6-.209l-6.459-4.825Zm13.051,25.256a1.581,1.581,0,0,1-1.121-.468,1.6,1.6,0,0,1-.467-1.114,1.588,1.588,0,1,1,2.709,1.114A1.557,1.557,0,0,1,17665.512,4350.247Zm5.838-13.151a1.559,1.559,0,0,1-1.113-.462,1.583,1.583,0,0,1,1.113-2.713,1.58,1.58,0,0,1,1.127.461,1.6,1.6,0,0,1,0,2.252A1.577,1.577,0,0,1,17671.35,4337.1Zm-24.82-5.844a1.594,1.594,0,0,1-1.588-1.6,1.566,1.566,0,0,1,.461-1.109,1.6,1.6,0,0,1,1.127-.467,1.579,1.579,0,0,1,1.125.467,1.6,1.6,0,0,1,0,2.24A1.576,1.576,0,0,1,17646.529,4331.252Zm12.412-6.581a1.573,1.573,0,0,1-1.125-.462,1.594,1.594,0,0,1,0-2.24,1.556,1.556,0,0,1,1.125-.468,1.577,1.577,0,0,1,1.127.468,1.545,1.545,0,0,1,.461,1.108,1.6,1.6,0,0,1-1.588,1.594Z" transform="translate(-17529.5 209.499)" fill="#ff0a2b"/>
  </g>
</svg>
