<svg xmlns="http://www.w3.org/2000/svg" width="52.491" height="64" viewBox="0 0 52.491 64">
  <g id="Group_63188" data-name="Group 63188" transform="translate(-393 -10381)">
    <path id="Path_35404" data-name="Path 35404" d="M12798.286,4322a.935.935,0,1,1,0-1.87h.722v-34.344a1.448,1.448,0,0,1-.3-.429l-1.587-3.515a1.36,1.36,0,0,1,1.242-1.916h.647v-2.7a2.208,2.208,0,0,1,2.2-2.2h.187v-2.7a2.206,2.206,0,0,1,2.2-2.2h.806v-4.843a2.509,2.509,0,0,1,2.509-2.506h4.692V4261a1.807,1.807,0,0,1,1.806-1.806h4.854l.684-.684a1.747,1.747,0,0,1,1.245-.513h6.1a1.743,1.743,0,0,1,1.244.513l.681.684h4.856a1.807,1.807,0,0,1,1.807,1.806v1.767h4.691a2.509,2.509,0,0,1,2.509,2.506v4.843h.8a2.2,2.2,0,0,1,2.2,2.2v2.7h.188a2.205,2.205,0,0,1,2.2,2.2v2.7h.651a1.356,1.356,0,0,1,1.238,1.916l-1.587,3.518c-.013.026-.025.055-.042.084v34.686h.69a.935.935,0,0,1,0,1.87Zm36.6-1.87h10.989V4304.5h-10.989Zm-3.738,0h1.871V4304.5h-1.871Zm-13.935-22.493v22.493h12.064v-22.493c0-.031,0-.062,0-.093v-.028c0-.025,0-.051,0-.077a.1.1,0,0,1,0-.017,6.027,6.027,0,0,0-.418-2l-.021-.053-.006-.015a6.041,6.041,0,0,0-5.581-3.747h-.163a6.015,6.015,0,0,0-2.308.527l-.008,0a6.044,6.044,0,0,0-3.269,3.663v0A6.029,6.029,0,0,0,12817.212,4297.637Zm-3.737,22.493h1.87V4304.5h-1.87Zm-12.6-14.805v14.805h10.729V4304.5h-10.729Zm30.268-2.693h14.728v-2.08h-14.728Zm-30.268,0h14.466v-2.08h-14.466Zm45-3.947v-12.528h-10.989v12.528Zm-12.856,0V4286.16h-19.543v12.525h1.87v-1.048a7.9,7.9,0,0,1,11.139-7.2l.051.024a7.967,7.967,0,0,1,3.392,2.968c.016.021.03.043.044.065a7.843,7.843,0,0,1,.816,1.789l.009.027c.007.023.015.045.021.068s.021.07.03.1l0,.009.032.12,0,.008a7.955,7.955,0,0,1,.243,1.472h0c.006.088.011.177.014.266,0,.007,0,.014,0,.021l0,.1v.034c0,.041,0,.083,0,.124v1.048Zm-32.139,0h10.726V4286.16h-10.726Zm-.6-14.4h45.9c.019-.019.045-.039.067-.058l1.1-2.437h-48.191Zm.6-7.065v2.7h44.731v-2.7a.332.332,0,0,0-.332-.332h-44.067A.332.332,0,0,0,12800.879,4277.224Zm2.39-4.9v2.7h39.955v-2.7a.336.336,0,0,0-.335-.332H12803.6A.332.332,0,0,0,12803.269,4272.322Zm26.882-5.879a1.7,1.7,0,0,1,1.7,1.7v1.973h8.365v-4.843a.64.64,0,0,0-.639-.639h-32.661a.64.64,0,0,0-.638.639v4.843h8.365v-1.973a1.7,1.7,0,0,1,1.7-1.7Zm-13.641,3.676h13.47v-1.806h-13.47Zm-3.035-7.349h19.543v-1.7h-5.183a.946.946,0,0,1-.661-.274l-.922-.926h-6.012l-.926.926a.936.936,0,0,1-.66.274h-5.18Zm22.894,29.41a3.807,3.807,0,1,1,3.8,3.806A3.808,3.808,0,0,1,12836.368,4292.181Zm1.87,0a1.937,1.937,0,1,0,1.935-1.938A1.936,1.936,0,0,0,12838.238,4292.181Zm-35.728,0a3.807,3.807,0,1,1,3.8,3.806A3.808,3.808,0,0,1,12802.511,4292.181Zm1.87,0a1.937,1.937,0,1,0,1.935-1.938A1.936,1.936,0,0,0,12804.381,4292.181Z" transform="translate(-12404 6122.999)" fill="#ff0a2b"/>
  </g>
</svg>
