<svg xmlns="http://www.w3.org/2000/svg" width="40" height="40" viewBox="0 0 40 40">
  <g id="Group_63151" data-name="Group 63151" transform="translate(-1092 -1889)">
    <rect id="Rectangle_16075" data-name="Rectangle 16075" width="40" height="40" transform="translate(1092 1889)" fill="rgba(17,17,17,0)"/>
    <path id="Path_35389" data-name="Path 35389" d="M19532.813,20230.2a3.622,3.622,0,0,1-3.451-2.506.828.828,0,0,1-.033-.146l-.791-6.984-.359-.156a6.49,6.49,0,0,1,2.514-12.475h5.551l11.3-5.65a.741.741,0,0,1,.342-.082.765.765,0,0,1,.758.76v6.453l.508.135a5.031,5.031,0,0,1,0,9.752l-.508.131v6.455a.757.757,0,0,1-.361.646.769.769,0,0,1-.74.031l-11.3-5.646h-1.455l1.477,4.531a3.633,3.633,0,0,1-2.328,4.57A3.535,3.535,0,0,1,19532.813,20230.2Zm-2.705-9.285v0l.727,6.383.037.092a2.1,2.1,0,0,0,3.939-1.471l-1.627-5h-3.076Zm17.016-16.723h0l-9.941,4.971v10.521l9.941,4.971v-20.463Zm-16.432,5.26a4.971,4.971,0,1,0,0,9.941h4.971v-9.941Zm17.951,1.334h0v7.273l1.012-.59a3.577,3.577,0,0,0,1.275-1.258,3.512,3.512,0,0,0,.492-1.789,3.553,3.553,0,0,0-1.768-3.047l-1.012-.59Z" transform="translate(-18426.197 -18307.199)" fill="#fff"/>
  </g>
</svg>
