<svg xmlns="http://www.w3.org/2000/svg" width="40" height="40" viewBox="0 0 40 40">
  <g id="Group_63149" data-name="Group 63149" transform="translate(-1092 -1889)">
    <rect id="Rectangle_16075" data-name="Rectangle 16075" width="40" height="40" transform="translate(1092 1889)" fill="rgba(17,17,17,0)"/>
    <path id="Path_35390" data-name="Path 35390" d="M13746.429,4803.4a2.429,2.429,0,0,1-2.429-2.428v-23.543a2.429,2.429,0,0,1,2.429-2.428h12.408a2.431,2.431,0,0,1,2.428,2.428v23.543a2.431,2.431,0,0,1-2.428,2.428Zm-.916-2.428a.917.917,0,0,0,.916.915h12.408a.913.913,0,0,0,.912-.915v-2.663h-14.236Zm0-4.175h14.236V4781.6h-14.236Zm0-19.368v2.663h14.236v-2.663a.914.914,0,0,0-.912-.915h-12.408A.917.917,0,0,0,13745.513,4777.428Zm6.362,22.67a.756.756,0,1,1,.756.756A.723.723,0,0,1,13751.875,4800.1Zm.2-21.04a.756.756,0,1,1,0-1.513h1.112a.756.756,0,1,1,0,1.513Z" transform="translate(-12641 -2882)" fill="#fff"/>
  </g>
</svg>
