<svg xmlns="http://www.w3.org/2000/svg" width="63.794" height="32" viewBox="0 0 63.794 32">
  <g id="outline" transform="translate(-6 -8)">
    <path id="Path_26566" data-name="Path 26566" d="M13.5,22.682l3.8,2.848a1.2,1.2,0,0,0,1.444,0l3.8-2.848a3.766,3.766,0,0,0,1.5-3v-.636A3.745,3.745,0,0,0,18.62,15.7a1.343,1.343,0,0,1-1.2,0A3.745,3.745,0,0,0,12,19.049v.636A3.764,3.764,0,0,0,13.5,22.682Zm.909-3.633a1.331,1.331,0,0,1,1.937-1.2,3.764,3.764,0,0,0,3.35,0,1.337,1.337,0,0,1,1.935,1.2v.636a1.348,1.348,0,0,1-.536,1.071l-3.075,2.306-3.075-2.306a1.348,1.348,0,0,1-.536-1.071Z" transform="translate(1.222 1.488)" fill="#fff"/>
    <path id="Path_26567" data-name="Path 26567" d="M27.2,26.444H38.037a1.2,1.2,0,0,0,1.192-1.033l1.2-8.425a1.2,1.2,0,0,0-1.192-1.375H36.833V13.2a1.2,1.2,0,0,0-1.2-1.2H32.018a1.2,1.2,0,0,0-1,.536l-2.05,3.075H27.2a1.2,1.2,0,0,0-1.2,1.2V25.24A1.2,1.2,0,0,0,27.2,26.444Zm1.2-8.426h1.2a1.2,1.2,0,0,0,1-.536l2.05-3.075h1.763v2.407a1.2,1.2,0,0,0,1.2,1.2h2.223l-.859,6.018H28.407Z" transform="translate(4.073 0.815)" fill="#fff"/>
    <path id="Path_26568" data-name="Path 26568" d="M44.477,21.186l-.734,3.666a1.2,1.2,0,0,0,1.627,1.354l3.852-1.542,3.852,1.542a1.227,1.227,0,0,0,.447.085A1.2,1.2,0,0,0,54.7,24.847l-.734-3.666,2.124-2.124a1.2,1.2,0,0,0-.558-2.019L52.567,16.3l-2.322-3.731a1.252,1.252,0,0,0-2.046,0L45.877,16.3l-2.966.743a1.2,1.2,0,0,0-.558,2.019Zm2.458-2.669a1.2,1.2,0,0,0,.731-.532l1.556-2.5,1.556,2.506a1.2,1.2,0,0,0,.731.532l1.377.344L51.81,19.943a1.2,1.2,0,0,0-.33,1.083l.425,2.12-2.235-.9a1.216,1.216,0,0,0-.9,0l-2.235.9.425-2.12a1.2,1.2,0,0,0-.33-1.083l-1.076-1.077Z" transform="translate(7.332 0.821)" fill="#fff"/>
    <path id="Path_26569" data-name="Path 26569" d="M6,15.222v9.629a7.229,7.229,0,0,0,7.222,7.222h31.3v5.52a2.407,2.407,0,0,0,4.109,1.7l7.222-7.222h6.724a7.229,7.229,0,0,0,7.222-7.222V15.222A7.229,7.229,0,0,0,62.572,8H13.222A7.229,7.229,0,0,0,6,15.222Zm2.407,0a4.815,4.815,0,0,1,4.815-4.815h49.35a4.815,4.815,0,0,1,4.815,4.815v9.629a4.815,4.815,0,0,1-4.815,4.815H55.35a1.2,1.2,0,0,0-.851.352l-7.575,7.575V30.87a1.2,1.2,0,0,0-1.2-1.2h-32.5a4.815,4.815,0,0,1-4.815-4.815Z" fill="#fff"/>
  </g>
</svg>
