<svg xmlns="http://www.w3.org/2000/svg" width="64" height="64" viewBox="0 0 64 64">
  <g id="Group_53503" data-name="Group 53503" transform="translate(-215 -4439)">
    <circle id="Ellipse_426" data-name="Ellipse 426" cx="32" cy="32" r="32" transform="translate(215 4439)" fill="#ff0a2b"/>
    <g id="Group_50801" data-name="Group 50801" transform="translate(47.95 4292.268)">
      <path id="Path_24447" data-name="Path 24447" d="M206.548,185.989a11.838,11.838,0,0,0-18.935,8.767c-2.994,2.853-4.183,5.63-3.254,7.641.776,1.68,2.887,2.586,5.985,2.586q.379,0,.779-.018c.356-.017.725-.049,1.1-.087a11.846,11.846,0,0,0,1.888,1.2v1.281h-.594a.594.594,0,0,0-.594.594v5.937a.594.594,0,0,0,.594.594h11.874a.594.594,0,0,0,.594-.594v-5.937a.594.594,0,0,0-.594-.594h-.594v-1.281a11.92,11.92,0,0,0,6.509-9.994c.281-.268.554-.538.808-.81,2.407-2.577,3.271-5,2.431-6.815-.934-2.023-3.843-2.916-7.993-2.47ZM185.439,201.9c-.615-1.33.2-3.325,2.182-5.462h0a11.91,11.91,0,0,0,3.364,7.343C188.062,203.894,186.045,203.216,185.439,201.9Zm8.525,2.735a31.93,31.93,0,0,0,4.892-1.3v1.708a2.978,2.978,0,0,0-2.315,2.315h-1.247v-1.653a.593.593,0,0,0-.343-.538,10.714,10.714,0,0,1-.987-.532Zm5.485,1.536a1.781,1.781,0,0,1,1.672,1.187h-3.344a1.781,1.781,0,0,1,1.672-1.187Zm5.343,7.124H194.106v-1.781h10.686Zm0-2.968H194.106v-1.781h10.686Zm-.844-5.159h0a.593.593,0,0,0-.343.538v1.653h-1.247a2.978,2.978,0,0,0-2.315-2.315V202.9c.8-.307,1.6-.636,2.393-1a35.213,35.213,0,0,0,7.544-4.646,10.74,10.74,0,0,1-6.032,7.918Zm6.187-9.623a32.509,32.509,0,0,1-8.192,5.271c-.632.292-1.264.557-1.9.809v-3.171h1.781a4.16,4.16,0,0,0,4.156-4.156.594.594,0,0,0-.594-.594h-2.38a4.141,4.141,0,0,0-2.968,1.253v-2.44h-1.187v4.815a4.139,4.139,0,0,0-2.968-1.253h-2.375a.594.594,0,0,0-.594.594,4.16,4.16,0,0,0,4.156,4.156h1.781v1.252a29.434,29.434,0,0,1-6.28,1.563,10.678,10.678,0,1,1,17.559-8.158v.06ZM200.1,197.266a2.974,2.974,0,0,1,2.909-2.375h1.722a2.973,2.973,0,0,1-2.909,2.375ZM198.8,199.64h-1.721a2.973,2.973,0,0,1-2.909-2.375h1.721a2.974,2.974,0,0,1,2.909,2.375Zm12.473-5.209a11.837,11.837,0,0,0-3.443-7.353c2.951-.137,5.019.534,5.64,1.878C214.074,190.28,213.274,192.274,211.27,194.431Z" transform="translate(0 -20.124)" fill="#fff"/>
      <path id="Path_24448" data-name="Path 24448" d="M403.948,217.46l-.316,1.143a8.279,8.279,0,0,1,5.4,4.69l1.088-.475A9.459,9.459,0,0,0,403.948,217.46Z" transform="translate(-201.966 -51.257)" fill="#fff"/>
      <path id="Path_24449" data-name="Path 24449" d="M476.1,301.458l1.177-.157a9.437,9.437,0,0,0-.258-1.267l-1.145.316A8.324,8.324,0,0,1,476.1,301.458Z" transform="translate(-268.412 -127.206)" fill="#fff"/>
      <path id="Path_24450" data-name="Path 24450" d="M368.6,265.01h1.187V266.2H368.6Z" transform="translate(-169.744 -94.992)" fill="#fff"/>
      <path id="Path_24451" data-name="Path 24451" d="M368.6,235.41h1.187V236.6H368.6Z" transform="translate(-169.744 -67.767)" fill="#fff"/>
      <path id="Path_24452" data-name="Path 24452" d="M431.363,534.358a1.187,1.187,0,0,1-1.187,1.187H427.8v1.187h2.375a2.374,2.374,0,0,0,2.375-2.375V531.39h-1.187Z" transform="translate(-224.195 -340.001)" fill="#fff"/>
      <path id="Path_24453" data-name="Path 24453" d="M228.7,162.867l-.347-1.135a14.372,14.372,0,0,0-8.348,6.813l1.042.569h0a13.18,13.18,0,0,1,7.652-6.247Z" transform="translate(-33.075 0)" fill="#fff"/>
      <path id="Path_24454" data-name="Path 24454" d="M206.79,260.574l1.131.362h0a13.023,13.023,0,0,1,.519-1.359l-1.083-.487a14.338,14.338,0,0,0-.567,1.484Z" transform="translate(-20.916 -89.547)" fill="#fff"/>
      <path id="Path_24455" data-name="Path 24455" d="M472.2,501.8h1.188v1.188H472.2Z" transform="translate(-265.032 -312.785)" fill="#fff"/>
    </g>
  </g>
</svg>
