<svg xmlns="http://www.w3.org/2000/svg" width="64" height="64" viewBox="0 0 64 64">
  <g id="Group_53504" data-name="Group 53504" transform="translate(-506 -4439)">
    <circle id="Ellipse_427" data-name="Ellipse 427" cx="32" cy="32" r="32" transform="translate(506 4439)" fill="#ff0a2b"/>
    <g id="Group_50803" data-name="Group 50803" transform="translate(374.386 4307.388)">
      <path id="Path_24457" data-name="Path 24457" d="M181.613,150v-3.387h-3.387v1.129H150v-1.129h-3.387V150H150V148.87h8.151a16.4,16.4,0,0,0-10.394,14.677h-1.143v3.387H150v-3.387h-1.115a15.256,15.256,0,0,1,15-14.672l-6.6,6,1.7,9.042a9.6,9.6,0,1,0,10.254,0l1.7-9.042-6.6-6a15.255,15.255,0,0,1,15,14.672h-1.115v3.387h3.387v-3.387h-1.143a16.4,16.4,0,0,0-10.394-14.677h8.151V150Zm-32.741-1.129h-1.129v-1.129h1.129Zm0,16.935h-1.129v-1.129h1.129Zm31.612,0h-1.129v-1.129h1.129Zm-16.371-8.468a1.129,1.129,0,1,1-1.129,1.129A1.13,1.13,0,0,1,164.113,157.337Zm-1.694,22.975v-6.039h-1.129v5.716a8.425,8.425,0,0,1-1.129-.49v-4.661a2.26,2.26,0,0,1,2.258-2.258h3.387a2.26,2.26,0,0,1,2.258,2.258V179.5a8.4,8.4,0,0,1-1.129.49v-5.716h-1.129v6.039a8.49,8.49,0,0,1-3.387,0Zm1.694-9.426a2.258,2.258,0,1,1,2.258-2.258A2.26,2.26,0,0,1,164.113,170.886Zm8.468,1.129a8.451,8.451,0,0,1-3.387,6.758v-3.936a3.389,3.389,0,0,0-3.226-3.379,3.387,3.387,0,1,0-3.71,0,3.389,3.389,0,0,0-3.226,3.379v3.936a8.463,8.463,0,1,1,13.549-6.758Zm-4.382-8.67a9.473,9.473,0,0,0-8.172,0l-1.511-8.059,5.032-4.575v5.578a2.258,2.258,0,1,0,1.129,0v-5.578l5.032,4.575Zm11.156-15.6h1.129v1.129h-1.129Z" transform="translate(0)" fill="#fff"/>
      <path id="Path_24458" data-name="Path 24458" d="M287.2,464.8h1.129v1.129H287.2Z" transform="translate(-129.861 -293.914)" fill="#fff"/>
      <path id="Path_24459" data-name="Path 24459" d="M450,464.8h1.129v1.129H450Z" transform="translate(-280.241 -293.914)" fill="#fff"/>
    </g>
  </g>
</svg>
