<svg xmlns="http://www.w3.org/2000/svg" width="40" height="40.65" viewBox="0 0 40 40.65">
  <g id="Group_63248" data-name="Group 63248" transform="translate(-104 -3835)">
    <rect id="Rectangle_16146" data-name="Rectangle 16146" width="40" height="40" rx="4" transform="translate(104 3835)" fill="rgba(255,10,43,0)"/>
    <path id="Path_35540" data-name="Path 35540" d="M17662.535,4361.451h-24.564a4.525,4.525,0,0,1-4.52-4.521v-30.959a4.525,4.525,0,0,1,4.52-4.521h24.564a4.525,4.525,0,0,1,4.52,4.521v24.641a4.525,4.525,0,0,1-4.52,4.521h-24.564a1.794,1.794,0,0,0,0,3.589h24.564a8.005,8.005,0,0,0,4.5-1.367A4.508,4.508,0,0,1,17662.535,4361.451Zm-24.564-37.271a1.793,1.793,0,0,0-1.791,1.792v26.768l.543-.159a4.753,4.753,0,0,1,1.248-.177h24.564a1.8,1.8,0,0,0,1.795-1.791v-24.641a1.8,1.8,0,0,0-1.795-1.792Zm19.463,22.881h0l-4.869-4.374-.279.19a6.832,6.832,0,0,1-3.887,1.2,6.908,6.908,0,1,1,6.129-3.735l-.156.3,4.885,4.387-1.822,2.031Zm-9.035-14.036a4.163,4.163,0,1,0,4.166,4.159A4.167,4.167,0,0,0,17648.4,4333.024Z" transform="translate(-17526.953 -485.951)" fill="#ff0a2b" stroke="#191919" stroke-width="0.3"/>
  </g>
</svg>
