<svg xmlns="http://www.w3.org/2000/svg" width="64" height="64" viewBox="0 0 64 64">
  <g id="Group_63511" data-name="Group 63511" transform="translate(-263 -2792)">
    <rect id="Rectangle_16141" data-name="Rectangle 16141" width="64" height="64" transform="translate(263 2792)" fill="#ff0a2b" opacity="0"/>
    <path id="Path_35666" data-name="Path 35666" d="M13909.477,4386h-20.648a5.169,5.169,0,0,1-2.557-.678l-.43-.245-.256.422a1.047,1.047,0,0,1-.888.5h-10.324a1.042,1.042,0,0,1-1.041-1.04v-24.779a1.042,1.042,0,0,1,1.041-1.04h10.324a1.042,1.042,0,0,1,1.041,1.04v2.208l4.207-2.751.1-.061,2.908-4.726v-8.091a1.043,1.043,0,0,1,1.04-1.044c3.066,0,5.192.977,6.316,2.9a8.683,8.683,0,0,1,.919,4.463v6.057h10.314a4.138,4.138,0,0,1,3.086,6.9l-.306.341.306.337a4.126,4.126,0,0,1-.16,5.681,4.518,4.518,0,0,1-.38.337l-.366.287.256.391a4.146,4.146,0,0,1-.539,5.176,3.511,3.511,0,0,1-.373.33l-.385.284.264.4a4.134,4.134,0,0,1-3.466,6.394Zm-34.062-24.778v22.694h8.243v-22.694Zm19.615-13.4v7.324a1.055,1.055,0,0,1-.152.547l-2.762,4.487-.05.082-.018.1a1.082,1.082,0,0,1-.459.7l-5.851,3.82v15.956a3.1,3.1,0,0,0,3.089,3.085h20.663a2.056,2.056,0,0,0-.015-4.111h-1.029a1.041,1.041,0,1,1,0-2.081h2.06a2.057,2.057,0,0,0,0-4.115h-2.06a1.039,1.039,0,1,1,0-2.077h3.093a2.057,2.057,0,1,0,0-4.115h-3.093a1.04,1.04,0,1,1,0-2.081h3.093a2.057,2.057,0,1,0,0-4.115h-11.354a1.041,1.041,0,0,1-1.04-1.041v-7.1a6.979,6.979,0,0,0-.544-3.228,3.764,3.764,0,0,0-2.978-1.932l-.594-.1ZM13879.536,4382a1.042,1.042,0,1,1,1.04-1.04A1.043,1.043,0,0,1,13879.536,4382Zm37.174-27.477a.952.952,0,0,1-.838-.44l-3.1-4.647-.146-.224-5.841-.088a1.039,1.039,0,0,1-.8-1.683l3.625-4.581-1.725-5.581a1.031,1.031,0,0,1,.28-1.062,1.044,1.044,0,0,1,.721-.284,1.073,1.073,0,0,1,.354.06l5.476,2.031,4.774-3.359a1.031,1.031,0,0,1,.6-.191,1.046,1.046,0,0,1,.494.127,1.026,1.026,0,0,1,.543.956l-.224,5.567-.011.266,4.673,3.508a1.014,1.014,0,0,1,.394,1.022,1.031,1.031,0,0,1-.738.806l-5.624,1.58-1.886,5.524,0,.014A1.023,1.023,0,0,1,13916.71,4354.523Zm-6.214-15.838,1.265,4.083a1.048,1.048,0,0,1-.182.952l-2.652,3.355,4.275.063a1.047,1.047,0,0,1,.852.465l2.371,3.561,1.386-4.051a1.022,1.022,0,0,1,.7-.664l4.118-1.154-3.423-2.567a1.04,1.04,0,0,1-.416-.873l.175-4.271-3.5,2.457a1.027,1.027,0,0,1-.6.188,1.081,1.081,0,0,1-.365-.063l-4.013-1.48Zm-39.226,15.838a1.017,1.017,0,0,1-1-.678l-1.811-5.287-.085-.256-5.62-1.573a1.034,1.034,0,0,1-.742-.81,1.06,1.06,0,0,1,.4-1.026l4.459-3.341.216-.164-.241-5.833a1.042,1.042,0,0,1,.543-.956,1.069,1.069,0,0,1,.5-.127,1.043,1.043,0,0,1,.6.191l4.556,3.207.216.152,5.476-2.027a1.042,1.042,0,0,1,1.359,1.282l-1.644,5.326-.078.255,3.621,4.581.011.014a1.051,1.051,0,0,1-.771,1.669h-.021l-5.854.088-3.241,4.861-.007.011A.958.958,0,0,1,13871.271,4354.523Zm-2.254-16.939h0l.17,4.271a1.034,1.034,0,0,1-.412.873l-3.422,2.563,4.114,1.158a1.052,1.052,0,0,1,.707.664l1.378,4.051,2.372-3.561a1.036,1.036,0,0,1,.851-.465l4.283-.063-2.656-3.355a1.024,1.024,0,0,1-.178-.952l1.258-4.083-4.014,1.48a1.043,1.043,0,0,1-.361.063,1.009,1.009,0,0,1-.593-.188l-3.5-2.457Zm30.594,3.9a.887.887,0,0,1-.44-.117l-4.945-2.6-.234-.127-5.17,2.72a1.013,1.013,0,0,1-.479.121,1.044,1.044,0,0,1-1.029-1.218l.944-5.489.047-.267-4.183-4.072a1.038,1.038,0,0,1,.575-1.775l5.51-.8.267-.039,2.585-5.233a1.041,1.041,0,0,1,1.868,0l2.463,5,.121.238,5.779.841a1.043,1.043,0,0,1,.575,1.775l-3.989,3.888-.192.185.986,5.755,0,.018a.94.94,0,0,1-.209.784A1.131,1.131,0,0,1,13899.61,4341.486Zm-5.62-16.094-1.9,3.838a1.024,1.024,0,0,1-.78.568l-4.236.617,3.067,2.979a1.052,1.052,0,0,1,.3.923l-.725,4.218,3.789-1.992a1.044,1.044,0,0,1,.484-.118,1.026,1.026,0,0,1,.48.118l3.789,1.992-.725-4.218a1.036,1.036,0,0,1,.3-.919l3.064-2.983-4.236-.617a1.047,1.047,0,0,1-.78-.568Z" transform="translate(-13598.982 -1530.001)" fill="#fff"/>
  </g>
</svg>
