<svg xmlns="http://www.w3.org/2000/svg" xmlns:xlink="http://www.w3.org/1999/xlink" width="64" height="64" viewBox="0 0 64 64">
  <defs>
    <linearGradient id="linear-gradient" x2="0.801" y2="1.269" gradientUnits="objectBoundingBox">
      <stop offset="0" stop-color="#3d3e42"/>
      <stop offset="1" stop-color="#191919"/>
    </linearGradient>
  </defs>
  <g id="Group_55527" data-name="Group 55527" transform="translate(-143 -3387)">
    <rect id="Rectangle_13021" data-name="Rectangle 13021" width="64" height="64" rx="18" transform="translate(143 3387)" fill="url(#linear-gradient)"/>
    <path id="Subtraction_7" data-name="Subtraction 7" d="M11400.834,20199.744a4.037,4.037,0,0,1-2.871-1.193,1.322,1.322,0,0,1-.133-.152l-4.964-6.951a1.243,1.243,0,0,1,.134-1.611l.107-.107-2.257-2.258-.1.082a11.06,11.06,0,0,1-9.989,1.857l-.339-.1.159.316a3.962,3.962,0,0,1,.45,1.818,4.041,4.041,0,0,1-6.74,3.025l-.091-.084-4.9,3.676a1.214,1.214,0,0,1-.747.25,1.243,1.243,0,0,1-1-.5,1.258,1.258,0,0,1,.251-1.758l5.188-3.887-.015-.094a3.96,3.96,0,0,1,3.634-4.65l.353-.031-.266-.232-.107-.1-.047-.039c-.137-.121-.279-.244-.414-.381a11.077,11.077,0,0,1,15.665-15.664,10.914,10.914,0,0,1,3.146,6.447l.021.133h2.027l.035-.1a4.061,4.061,0,1,1,0,2.707l-.035-.1h-2.027l-.021.139a10.935,10.935,0,0,1-2.235,5.4l-.082.1,2.257,2.258.107-.105a1.257,1.257,0,0,1,1.611-.135l6.95,4.965a1.048,1.048,0,0,1,.153.133,4.062,4.062,0,0,1-2.866,6.93Zm-4.831-9.371h0l-.48.48,4.273,5.988.015.016a1.575,1.575,0,0,0,1.019.369,1.549,1.549,0,0,0,1.177-2.564l-.015-.01-5.988-4.279Zm-19.032-.484a1.556,1.556,0,1,0,1.556,1.555A1.557,1.557,0,0,0,11376.971,20189.889Zm6.582-6.066-2.313,3.08.209.064a8.76,8.76,0,0,0,2.564.381,8.493,8.493,0,0,0,8.394-7.107l.03-.174h-2.984v.148a4.062,4.062,0,0,1-4.058,4.059,4.014,4.014,0,0,1-1.729-.4l-.112-.053Zm.409-13.576a8.563,8.563,0,0,0-6.064,14.625,6.989,6.989,0,0,0,.891.732l.189.145,2.6-3.477a.354.354,0,0,1,.052-.047l.008-.006a.3.3,0,0,0,.057-.047c.01-.01.019-.016.027-.023l.077-.076-.052-.1a4,4,0,0,1-.42-1.762,4.046,4.046,0,0,1,7.063-2.707l.046.051h4l-.03-.174a8.54,8.54,0,0,0-8.444-7.139Zm1.433,8.414a1.556,1.556,0,1,0,1.551,1.555A1.557,1.557,0,0,0,11385.395,20178.66Zm15.439-1.4a1.556,1.556,0,1,0,1.551,1.555A1.557,1.557,0,0,0,11400.834,20177.258Z" transform="translate(-11211.301 -16764.746)" fill="#fff"/>
  </g>
</svg>
