<svg xmlns="http://www.w3.org/2000/svg" width="63.996" height="64" viewBox="0 0 63.996 64">
  <path id="Path_35669" data-name="Path 35669" d="M13893.4,4385.4a2.9,2.9,0,0,1-2.777-2.082l-.038-.13-.134-.014a30.16,30.16,0,0,1-26.818-26.822l-.015-.133-.13-.039a2.894,2.894,0,0,1,0-5.557l.13-.039.015-.134a30.145,30.145,0,0,1,26.818-26.818l.134-.014.038-.13a2.889,2.889,0,0,1,5.553,0l.038.13.138.014a30.143,30.143,0,0,1,26.814,26.818l.015.134.13.039a2.892,2.892,0,0,1,0,5.557l-.13.039-.015.133a30.158,30.158,0,0,1-26.814,26.822l-.138.014-.038.13A2.9,2.9,0,0,1,13893.4,4385.4Zm0-4.157a1.241,1.241,0,1,0,1.238,1.245A1.244,1.244,0,0,0,13893.4,4381.242Zm0-1.667a2.906,2.906,0,0,1,2.691,1.8l.056.137.151-.017a28.325,28.325,0,0,0,25.193-25.194l.018-.151-.14-.056a2.913,2.913,0,0,1,0-5.38l.14-.06-.018-.147a28.338,28.338,0,0,0-25.193-25.2l-.151-.014-.056.138a2.916,2.916,0,0,1-5.385,0l-.056-.137-.151.014a28.347,28.347,0,0,0-25.193,25.2l-.019.147.141.06a2.914,2.914,0,0,1,0,5.38l-.141.056.019.151a28.334,28.334,0,0,0,25.193,25.194l.151.017.056-.137A2.908,2.908,0,0,1,13893.4,4379.575Zm29.084-27.413a1.238,1.238,0,1,0,1.241,1.238A1.241,1.241,0,0,0,13922.481,4352.163Zm-58.167,0a1.238,1.238,0,1,0,1.238,1.238A1.243,1.243,0,0,0,13864.314,4352.163Zm29.083-29.086a1.24,1.24,0,1,0,1.238,1.241A1.243,1.243,0,0,0,13893.4,4323.076Zm1.034,46.74a4.259,4.259,0,0,1-2.366-.714l-.492-.331h-.064a.328.328,0,0,0-.066.007h-.007a3.038,3.038,0,0,1-3.031-2.923l-.007-.183-.187-.007a3.058,3.058,0,0,1-2.781-2.121l-.064-.2-.192.07a3.057,3.057,0,0,1-3.9-1.952l-.063-.2-.192.07a3.044,3.044,0,0,1-3.151-5.025l.77-.771-3.176-2.542-.127-.1-.125.106a.847.847,0,0,1-.384.183.716.716,0,0,1-.124.01.837.837,0,0,1-.5-.168l-4.153-3.116a.837.837,0,0,1-.176-1.16l8.311-11.429a.827.827,0,0,1,.551-.334.849.849,0,0,1,.125-.01.827.827,0,0,1,.5.168l4.158,3.116a.834.834,0,0,1,.168,1.16l-.845,1.165,2.452,1.628.049.035h4.6l.174-.186a6.443,6.443,0,0,1,4.575-1.889,6.577,6.577,0,0,1,1.769.246l6.2,1.772,1.8-.9-1.361-1.868a.84.84,0,0,1,.18-1.16l4.153-3.116a.846.846,0,0,1,.507-.168.676.676,0,0,1,.119.01.821.821,0,0,1,.552.337l8.311,11.426a.838.838,0,0,1-.176,1.16l-4.153,3.116a.837.837,0,0,1-.5.168.692.692,0,0,1-.124-.007.835.835,0,0,1-.553-.334l-.464-.636-3.414,2.922-.112.1.059.137a2.872,2.872,0,0,1-1.895,3.953l-.218.06.08.211a2.915,2.915,0,0,1-2.711,3.98,4.29,4.29,0,0,1-.988-.116l-.25-.06v.38a2.915,2.915,0,0,1-2.911,2.912,4.008,4.008,0,0,1-1.007-.13l-.252-.063v.26a.429.429,0,0,0,.014.1.147.147,0,0,0,0,.02.1.1,0,0,1,0,.013A2.92,2.92,0,0,1,13894.432,4369.816Zm.711-3.939h0l-.123.284a3.013,3.013,0,0,1-.633.936l-.873.872.341.088a2.42,2.42,0,0,0,.577.085,1.243,1.243,0,0,0,1.245-1.238v-.007a1.237,1.237,0,0,0-.323-.791l-.211-.229Zm-2.908-2.289a1.373,1.373,0,0,0-.971.4l-.788.788a1.354,1.354,0,0,0-.4.967,1.365,1.365,0,0,0,2.328.967l.791-.788a1.369,1.369,0,0,0,0-1.934A1.348,1.348,0,0,0,13892.234,4363.588Zm-9.347-11.028a3.038,3.038,0,0,1,3.034,2.926l.007.187.187.007a3.061,3.061,0,0,1,2.926,2.922l.007.186.187.007a3.06,3.06,0,0,1,2.923,2.923l.011.186.183.007a3.015,3.015,0,0,1,2.261,1.175l.024.032,2.469,1.445a2.684,2.684,0,0,0,1.484.464,1.239,1.239,0,0,0,.745-2.23l-3.295-2.472-2.939-1.962.928-1.393,2.93,1.952,4.3,2.525a2.638,2.638,0,0,0,1.48.464,1.241,1.241,0,0,0,.749-2.233l-3.295-2.472-2.94-1.959.925-1.392,5.205,3.464a2.548,2.548,0,0,0,1.435.439,1.247,1.247,0,0,0,1.179-.848,1.231,1.231,0,0,0-.434-1.385l-8.584-6.439-.056-.039h-1.428a2.645,2.645,0,0,0-1.481.447,9.641,9.641,0,0,1-5.366,1.628h-.018a2.307,2.307,0,0,1-1.631-3.938l1.259-1.252h-3.172a.869.869,0,0,1-.468-.148l-2.6-1.737-.162-.106-5.423,7.452-.112.159,3.513,2.8.9-.9A3.018,3.018,0,0,1,13882.888,4352.56Zm6.227,7.909a1.367,1.367,0,0,0-.963.4l-.791.792a1.37,1.37,0,0,0,.446,2.229,1.384,1.384,0,0,0,.521.1,1.348,1.348,0,0,0,.97-.4l.785-.788a1.364,1.364,0,0,0-.968-2.331Zm-3.112-3.116a1.358,1.358,0,0,0-.967.4l-1.824,1.829a1.364,1.364,0,1,0,1.927,1.931l1-1.006.011,0,.813-.815a1.365,1.365,0,0,0-.965-2.332Zm-3.114-3.116a1.362,1.362,0,0,0-.969.4l-2.869,2.866a1.378,1.378,0,0,0,0,1.934,1.357,1.357,0,0,0,1.93,0l2.867-2.863a1.362,1.362,0,0,0,.4-.97,1.376,1.376,0,0,0-.4-.964A1.352,1.352,0,0,0,13882.888,4354.237Zm12.589-6.868h3.949v1.457l6.756,5.067.13.1,3.513-3.01.141-.12-4.4-6.052-.1-.137-2.342,1.174a.85.85,0,0,1-.369.088.89.89,0,0,1-.235-.035l-6.514-1.86a4.823,4.823,0,0,0-4.7,1.217l-3.115,3.116a.632.632,0,0,0,.446,1.079,8,8,0,0,0,4.456-1.35A4.3,4.3,0,0,1,13895.477,4347.369Zm-16.444-8.37h0l-7.209,9.91-.116.162,2.816,2.11,7.206-9.91.116-.162-2.813-2.11Zm28.729,0h0l-2.654,1.991-.158.119,7.2,9.907.119.166,2.659-1.991.158-.119-7.2-9.907-.123-.165Z" transform="translate(-13861.4 -4321.398)" fill="#fff"/>
</svg>
