<svg xmlns="http://www.w3.org/2000/svg" width="342.5" height="295.242" viewBox="0 0 342.5 295.242">
  <g id="Group_80" data-name="Group 80" transform="translate(-0.25 0.25)">
    <circle id="Ellipse_13548" data-name="Ellipse 13548" cx="132.222" cy="132.222" r="132.222" transform="translate(77.556 0.5)" fill="none" stroke="#ff0a2b" stroke-linecap="round" stroke-linejoin="round" stroke-width="1.5" stroke-dasharray="1 6"/>
    <path id="Path_35457" data-name="Path 35457" d="M381.157,619.1c4.495-9.033,7.85-13.178,20.358-13.4l.419-.965a21.145,21.145,0,0,1,19.786-12.726l9.315.171a21.145,21.145,0,0,1,19.341,13.531l.8,2.062c9.742,4.873,10.766,9.473,11.98,18.663a3.325,3.325,0,0,0,.737,1.688,3.314,3.314,0,0,1,.764,2.115v4.821a14.012,14.012,0,0,1-14.012,14.012H377.012A14.012,14.012,0,0,1,363,635.058v-3.223A12.738,12.738,0,0,1,375.738,619.1Z" transform="translate(-269.776 -440.811)" fill="#515050"/>
    <path id="Path_35458" data-name="Path 35458" d="M413.5,616.933c4.085-8.31,7.134-12.124,18.5-12.326a20.74,20.74,0,0,1,19.461-12.567l4.894.094a21.145,21.145,0,0,1,19.354,13.611l.292.767c8.934,4.525,10.991,8.308,12.165,16.9a3.392,3.392,0,0,0,.4,1.2l.732,1.3a7.9,7.9,0,0,1,1.01,3.637l.016.532a14.012,14.012,0,0,1-14.006,14.426H411.012A14.012,14.012,0,0,1,397,630.5v-.825a12.738,12.738,0,0,1,12.738-12.738Z" transform="translate(-295.114 -440.835)" fill="#111" stroke="#b2b2b2" stroke-width="1.5"/>
    <circle id="Ellipse_13549" data-name="Ellipse 13549" cx="9.808" cy="9.808" r="9.808" transform="translate(141.629 170.045)" fill="#ff0a2b"/>
    <rect id="Rectangle_16125" data-name="Rectangle 16125" width="100.631" height="25.731" transform="translate(1 201.89)" fill="none" stroke="#737373" stroke-width="1.5"/>
    <rect id="Rectangle_16126" data-name="Rectangle 16126" width="100.631" height="25.731" transform="translate(1 233.226)" fill="none" stroke="#737373" stroke-width="1.5"/>
    <rect id="Rectangle_16127" data-name="Rectangle 16127" width="100.631" height="25.731" transform="translate(1 264.562)" fill="none" stroke="#737373" stroke-width="1.5"/>
    <path id="Path_35459" data-name="Path 35459" d="M157.51,480.67l-.255-29.17H375.841V602.7h-84.2M157,537.992l.255-27.26M218.143,602.7h24.712m48.787,0v19.744m0-19.744H242.855m48.787,19.744H242.855m48.787,0h23.183v7.9H219.29v-7.9h23.566m0,0V602.7M157,563.85v5.35m0,25.986v5.35" transform="translate(-116.257 -336.102)" fill="none" stroke="#737373" stroke-width="1.5"/>
    <path id="Path_35460" data-name="Path 35460" d="M883.84,819h60.888a4.841,4.841,0,0,1,4.841,4.84v19.617a4.841,4.841,0,0,1-4.841,4.841H883.84a4.841,4.841,0,0,1-4.84-4.841V823.84A4.841,4.841,0,0,1,883.84,819Z" transform="translate(-654.318 -609.977)" fill="none" stroke="#737373" stroke-width="1.5"/>
    <path id="Path_35461" data-name="Path 35461" d="M902.841,797h51.207a4.841,4.841,0,0,1,4.84,4.84v.51H898v-.51A4.841,4.841,0,0,1,902.841,797Z" transform="translate(-668.478 -593.581)" fill="none" stroke="#737373" stroke-width="1.5"/>
    <path id="Path_35462" data-name="Path 35462" d="M1157,853h1.783a2.548,2.548,0,0,1,2.548,2.548v5.35a2.548,2.548,0,0,1-2.548,2.548H1157Z" transform="translate(-861.494 -635.315)" fill="none" stroke="#737373" stroke-width="1.5"/>
    <path id="Path_35463" data-name="Path 35463" d="M863.548,853h1.783v10.445h-1.783A2.548,2.548,0,0,1,861,860.9v-5.35A2.548,2.548,0,0,1,863.548,853Z" transform="translate(-640.904 -635.315)" fill="none" stroke="#737373" stroke-width="1.5"/>
    <path id="Path_35464" data-name="Path 35464" d="M95,842h43.819" transform="translate(-70.052 -627.117)" fill="none" stroke="#737373" stroke-width="1.5"/>
    <path id="Path_35465" data-name="Path 35465" d="M330,842h11.464" transform="translate(-245.183 -627.117)" fill="none" stroke="#737373" stroke-width="1.5"/>
    <path id="Path_35466" data-name="Path 35466" d="M330,965h11.464" transform="translate(-245.183 -718.781)" fill="none" stroke="#737373" stroke-width="1.5"/>
    <path id="Path_35467" data-name="Path 35467" d="M330,1088h11.464" transform="translate(-245.183 -810.445)" fill="none" stroke="#737373" stroke-width="1.5"/>
    <path id="Path_35468" data-name="Path 35468" d="M95,965h43.819" transform="translate(-70.052 -718.781)" fill="none" stroke="#737373" stroke-width="1.5"/>
    <path id="Path_35469" data-name="Path 35469" d="M95,1088h43.819" transform="translate(-70.052 -810.445)" fill="none" stroke="#737373" stroke-width="1.5"/>
    <circle id="Ellipse_13550" data-name="Ellipse 13550" cx="3.694" cy="3.694" r="3.694" transform="translate(280.984 214.119)" fill="#ff0a2b"/>
    <path id="Path_35470" data-name="Path 35470" d="M198.5,1015.5v5.35" transform="translate(-147.184 -756.416)" fill="none" stroke="#737373" stroke-width="1.5"/>
    <path id="Path_35471" data-name="Path 35471" d="M199,892.5v5.35" transform="translate(-147.557 -664.752)" fill="none" stroke="#737373" stroke-width="1.5"/>
    <path id="Path_35472" data-name="Path 35472" d="M115.949,566.5H112v29.807h29.552V566.5h-25.6Z" transform="translate(-82.721 -421.804)"/>
    <path id="Path_35473" data-name="Path 35473" d="M97.318,541v6.5m0,0H93.369v3.439m3.949-3.439h4.2m0,0V541m0,6.5h3.821m0,0V541m0,6.5h4.968m0,0V541m0,6.5h4.458m0,0V541m0,6.5h4.076m0,0h4.076v3.439m-4.076-3.439V541m4.076,9.936h6.114m-6.114,0v4.458m0,0h6.114m-6.114,0v4.331m0,0h6.114m-6.114,0v4.331m0,0h6.114m-6.114,0v4.586m0,0h6.114m-6.114,0v4.331m0,0V577.3h-3.949m3.949-4.331h6.114M118.973,577.3v6.114m0-6.114h-4.2m0,0v6.114m0-6.114h-4.458m0,0v6.114m0-6.114h-4.458m0,0v6.114m0-6.114h-4.076m0,0v6.114m0-6.114h-4.2m0,0h-4.2V550.936m4.2,26.368v6.114m-4.2-32.482H87" transform="translate(-64.09 -402.801)" fill="none" stroke="#737373" stroke-width="1.5"/>
    <path id="Path_35474" data-name="Path 35474" d="M93.614,597H87.5" transform="translate(-64.463 -444.534)" fill="none" stroke="#737373" stroke-width="1.5"/>
    <path id="Path_35475" data-name="Path 35475" d="M93.614,614H87.5" transform="translate(-64.463 -457.203)" fill="none" stroke="#737373" stroke-width="1.5"/>
    <path id="Path_35476" data-name="Path 35476" d="M93.614,631H87.5" transform="translate(-64.463 -469.872)" fill="none" stroke="#737373" stroke-width="1.5"/>
    <path id="Path_35477" data-name="Path 35477" d="M93.614,648H87.5" transform="translate(-64.463 -482.541)" fill="none" stroke="#737373" stroke-width="1.5"/>
    <path id="Path_35478" data-name="Path 35478" d="M93.614,665H87.5" transform="translate(-64.463 -495.21)" fill="none" stroke="#737373" stroke-width="1.5"/>
    <circle id="Ellipse_13551" data-name="Ellipse 13551" cx="3.821" cy="3.821" r="3.821" transform="translate(40.233 155.523)" fill="#ff0a2b"/>
    <circle id="Ellipse_13552" data-name="Ellipse 13552" cx="3.057" cy="3.057" r="3.057" transform="translate(9.662 211.571)" fill="#ff0a2b"/>
    <circle id="Ellipse_13553" data-name="Ellipse 13553" cx="3.057" cy="3.057" r="3.057" transform="translate(9.662 243.162)" fill="#ff0a2b"/>
    <circle id="Ellipse_13554" data-name="Ellipse 13554" cx="3.057" cy="3.057" r="3.057" transform="translate(9.662 274.243)" fill="#ff0a2b"/>
  </g>
</svg>
