<svg xmlns="http://www.w3.org/2000/svg" width="51.238" height="48" viewBox="0 0 51.238 48">
  <path id="Website_Design_" data-name="Website Design " d="M19568.6,20250v-.092h-31.082a3.232,3.232,0,0,1-3.02-2.135v-37.533a3.233,3.233,0,0,1,3.02-2.123h15.008a1.071,1.071,0,0,1,0,2.143h-15.008a1.05,1.05,0,0,0-1.07,1.064v3.219h9.648a1.068,1.068,0,0,1,1.078,1.072,1.082,1.082,0,0,1-1.078,1.068h-9.648v30a1.061,1.061,0,0,0,1.07,1.08q22.529,0,45.008,0a1.064,1.064,0,0,0,1.074-1.08v-30h-15a1.07,1.07,0,1,1,0-2.141h15v-3.219a1.053,1.053,0,0,0-1.074-1.064h-8.574a1.071,1.071,0,0,1,0-2.143h8.574a3.223,3.223,0,0,1,3.211,3.207v35.361a3.233,3.233,0,0,1-3.211,3.223h-11.785v.092Zm8.57-4.379a2.162,2.162,0,0,1-2.141-2.148h-8.574a2.165,2.165,0,0,1-2.145,2.148h-2.145a2.165,2.165,0,0,1-2.141-2.148v-2.143a2.163,2.163,0,0,1,2.141-2.143v-8.574a2.161,2.161,0,0,1-2.141-2.143v-2.139a2.161,2.161,0,0,1,2.141-2.143h2.145a2.162,2.162,0,0,1,2.145,2.143h8.574a2.158,2.158,0,0,1,2.141-2.143h2.145a2.159,2.159,0,0,1,2.145,2.143v2.139a2.159,2.159,0,0,1-2.145,2.143v8.574a2.162,2.162,0,0,1,2.145,2.143v2.143a2.163,2.163,0,0,1-2.145,2.148Zm0-2.148h2.145v-2.143h-2.145Zm-15,0h2.145v-2.143h-2.145Zm2.145-12.859v8.574a2.164,2.164,0,0,1,2.145,2.143h8.574a2.161,2.161,0,0,1,2.141-2.143v-8.574a2.158,2.158,0,0,1-2.141-2.143h-8.574A2.162,2.162,0,0,1,19564.313,20230.615Zm12.859-2.143h2.145v-2.139h-2.145Zm-15,0h2.145v-2.139h-2.145Zm-22.508,17.15a1.074,1.074,0,0,1,0-2.148h15.012a1.074,1.074,0,0,1,0,2.148Zm0-4.291a1.071,1.071,0,0,1,0-2.143h15.012a1.071,1.071,0,0,1,0,2.143Zm26.8-6.43a4.287,4.287,0,1,1,4.285,4.287A4.3,4.3,0,0,1,19566.457,20234.9Zm2.145,0a2.143,2.143,0,1,0,2.141-2.143A2.123,2.123,0,0,0,19568.6,20234.9Zm-28.137-1.973a2.476,2.476,0,0,1-.508-2.723l3.047-6.838a1.028,1.028,0,0,1,.285-.377q9.949-9.958,19.906-19.92c1.445-1.314,2.934-1.537,4.551,0l2.578,2.576a3.225,3.225,0,0,1,0,4.541q-9.973,9.967-19.937,19.945a1.132,1.132,0,0,1-.41.277l-6.793,3.025a2.393,2.393,0,0,1-.977.207A2.476,2.476,0,0,1,19540.465,20232.93Zm1.445-1.852a.247.247,0,0,0,.066.332.251.251,0,0,0,.336.07l5.418-2.418-3.406-3.4Zm3.582-7.27,4.094,4.082,13.438-13.428-4.09-4.088Zm19.223-19.229-4.27,4.275,4.09,4.094,4.27-4.268a1.057,1.057,0,0,0,0-1.52l-2.574-2.582a1.18,1.18,0,0,0-.738-.369A1.338,1.338,0,0,0,19564.715,20204.58Zm-17.547,7.82a1.07,1.07,0,1,1,2.141,0,1.065,1.065,0,0,1-1.074,1.074A1.077,1.077,0,0,1,19547.168,20212.4Zm-4.289,0a1.072,1.072,0,1,1,2.145,0,1.067,1.067,0,0,1-1.074,1.074A1.083,1.083,0,0,1,19542.879,20212.4Zm-4.285,0a1.072,1.072,0,1,1,1.066,1.074A1.081,1.081,0,0,1,19538.594,20212.4Z" transform="translate(-19534.5 -20202.002)" fill="#ff0a2b"/>
</svg>
